/* XPM */
static char *BGfront31703155331[] = {
/* columns rows colors chars-per-pixel */
"64 64 16 1 ",
"  c #040404",
". c #3F3013",
"X c #2B2F32",
"o c #46000A",
"O c #770000",
"+ c #214614",
"@ c #347322",
"# c #5D4717",
"$ c #4E6338",
"% c #B60000",
"& c #5BA60B",
"* c #C99236",
"= c #A7CB35",
"- c #E2E739",
"; c #DADADA",
": c gray91",
/* pixels */
"$$$$$$$$$$$$$$$$$$$$$$$$$$$$$$$$$$$$$$$$$$$$$$$$$$$$$$$$$$$$$$$$",
"$$$$$$$$$$$$$$$$$$$$$$$$$$$$$$$$$$$$$$$$$$$$$$$$$$$$$$$$$$$$$$$$",
"$$$$$$$$$$$$$$$$$$$$$$$$$$$$$$$$$$$$$$$$$$$$$$$$$$$$$$$$$$$$$$$$",
"$$$$$$$$$$$$$$$$$$$$$$$$$$$$$$$$$$$$$$$$$$$$$$$$$$$$$$$$$$$$$$$$",
"$$$$$$$$$$$$$$$$$$$$$$$$$$$$$$$$$$$$$$$$$$$$$$$$$$$$$$$$$$$$$$$$",
"$$$$$$$$$$$$$$$$$$$$$$$$$$$$$$$$$$$$$$$$$$$$$$$$$$$$$$$$$$$$$$$$",
"$$$$$$$$$$$$$$$$$$$$$$$$$$$$$$$$$$$$$$$$$$$$$$$$$$$$$$$$$$$$$$$$",
"$$$$$$$$$$$$$$$$$$$$$$$$$$$$$$$$$$$$$$$$$$$$$$$$$$$$$$$$$$$$$$$$",
"$$$$$$$$$$$$$$$$$$$$                        $$$$$$$$$$$$$$$$$$$$",
"$$$$$$$$$$$$$$$$$$$$                        $$$$$$$$$$$$$$$$$$$$",
"$$$$$$$$$$$$$$$$$$$$                        $$$$$$$$$$$$$$$$$$$$",
"$$$$$$$$$$$$$$$$$$$$                        $$$$$$$$$$$$$$$$$$$$",
"$$$$$$$$$$$$$$$$    @@@@================@@@@    $$$$$$$$$$$$$$$$",
"$$$$$$$$$$$$$$$$    @@@@================@@@@    $$$$$$$$$$$$$$$$",
"$$$$$$$$$$$$$$$$    @@@@================@@@@    $$$$$$$$$$$$$$$$",
"$$$$$$$$$$$$$$$$    @@@@================@@@@    $$$$$$$$$$$$$$$$",
"$$$$$$$$$$$$    ++++====----================++++    $$$$$$$$$$$$",
"$$$$$$$$$$$$    ++++====----================++++    $$$$$$$$$$$$",
"$$$$$$$$$$$$    ++++====----================++++    $$$$$$$$$$$$",
"$$$$$$$$$$$$    ++++====----================++++    $$$$$$$$$$$$",
"$$$$            ++++&&&&================&&&&++++            $$$$",
"$$$$            ++++&&&&================&&&&++++            $$$$",
"$$$$            ++++&&&&================&&&&++++            $$$$",
"$$$$            ++++&&&&================&&&&++++            $$$$",
"$$$$    &&&&&&&&&&&&&&&&&&&&&&&&&&&&&&&&&&&&&&&&&&&&&&&&    $$$$",
"$$$$    &&&&&&&&&&&&&&&&&&&&&&&&&&&&&&&&&&&&&&&&&&&&&&&&    $$$$",
"$$$$    &&&&&&&&&&&&&&&&&&&&&&&&&&&&&&&&&&&&&&&&&&&&&&&&    $$$$",
"$$$$    &&&&&&&&&&&&&&&&&&&&&&&&&&&&&&&&&&&&&&&&&&&&&&&&    $$$$",
"$$$$$$$$    @@@@&&&&::::    ========    ::::&&&&@@@@    $$$$$$$$",
"$$$$$$$$    @@@@&&&&::::    ========    ::::&&&&@@@@    $$$$$$$$",
"$$$$$$$$    @@@@&&&&::::    ========    ::::&&&&@@@@    $$$$$$$$",
"$$$$$$$$    @@@@&&&&::::    ========    ::::&&&&@@@@    $$$$$$$$",
"$$$$$$$$$$$$        ::::    ========    ::::    OOOO@@@@    $$$$",
"$$$$$$$$$$$$        ::::    ========    ::::    OOOO@@@@    $$$$",
"$$$$$$$$$$$$        ::::    ========    ::::    OOOO@@@@    $$$$",
"$$$$$$$$$$$$        ::::    ========    ::::    OOOO@@@@    $$$$",
"$$$$$$$$$$$$$$$$    ++++&&&&&&&&&&&&&&&&++++oooooooo++++    $$$$",
"$$$$$$$$$$$$$$$$    ++++&&&&&&&&&&&&&&&&++++oooooooo++++    $$$$",
"$$$$$$$$$$$$$$$$    ++++&&&&&&&&&&&&&&&&++++oooooooo++++    $$$$",
"$$$$$$$$$$$$$$$$    ++++&&&&&&&&&&&&&&&&++++oooooooo++++    $$$$",
"$$$$$$$$$$$$    %%%%%%%%oooo****XXXXXXXXoooo            $$$$$$$$",
"$$$$$$$$$$$$    %%%%%%%%oooo****XXXXXXXXoooo            $$$$$$$$",
"$$$$$$$$$$$$    %%%%%%%%oooo****XXXXXXXXoooo            $$$$$$$$",
"$$$$$$$$$$$$    %%%%%%%%oooo****XXXXXXXXoooo            $$$$$$$$",
"$$$$$$$$$$$$    OOOO@@@@&&&&****;;;;;;;;XXXXXXXX$$$$$$$$$$$$$$$$",
"$$$$$$$$$$$$    OOOO@@@@&&&&****;;;;;;;;XXXXXXXX$$$$$$$$$$$$$$$$",
"$$$$$$$$$$$$    OOOO@@@@&&&&****;;;;;;;;XXXXXXXX$$$$$$$$$$$$$$$$",
"$$$$$$$$$$$$    OOOO@@@@&&&&****;;;;;;;;XXXXXXXX$$$$$$$$$$$$$$$$",
"$$$$$$$$$$$$$$$$    ++++@@@@****XXXXXXXX;;;;;;;;XXXX$$$$$$$$$$$$",
"$$$$$$$$$$$$$$$$    ++++@@@@****XXXXXXXX;;;;;;;;XXXX$$$$$$$$$$$$",
"$$$$$$$$$$$$$$$$    ++++@@@@****XXXXXXXX;;;;;;;;XXXX$$$$$$$$$$$$",
"$$$$$$$$$$$$$$$$    ++++@@@@****XXXXXXXX;;;;;;;;XXXX$$$$$$$$$$$$",
"$$$$$$$$$$$$$$$$    ........        ....XXXXXXXXXXXX$$$$$$$$$$$$",
"$$$$$$$$$$$$$$$$    ........        ....XXXXXXXXXXXX$$$$$$$$$$$$",
"$$$$$$$$$$$$$$$$    ........        ....XXXXXXXXXXXX$$$$$$$$$$$$",
"$$$$$$$$$$$$$$$$    ........        ....XXXXXXXXXXXX$$$$$$$$$$$$",
"$$$$$$$$$$$$$$$$$$$$$$$$$$$$$$$$    ########    $$$$$$$$$$$$$$$$",
"$$$$$$$$$$$$$$$$$$$$$$$$$$$$$$$$    ########    $$$$$$$$$$$$$$$$",
"$$$$$$$$$$$$$$$$$$$$$$$$$$$$$$$$    ########    $$$$$$$$$$$$$$$$",
"$$$$$$$$$$$$$$$$$$$$$$$$$$$$$$$$    ########    $$$$$$$$$$$$$$$$",
"$$$$$$$$$$$$$$$$$$$$$$$$$$$$$$$$$$$$$$$$$$$$$$$$$$$$$$$$$$$$$$$$",
"$$$$$$$$$$$$$$$$$$$$$$$$$$$$$$$$$$$$$$$$$$$$$$$$$$$$$$$$$$$$$$$$",
"$$$$$$$$$$$$$$$$$$$$$$$$$$$$$$$$$$$$$$$$$$$$$$$$$$$$$$$$$$$$$$$$",
"$$$$$$$$$$$$$$$$$$$$$$$$$$$$$$$$$$$$$$$$$$$$$$$$$$$$$$$$$$$$$$$$"
};
