/* XPM */
static char *BPfront1703155331[] = {
/* columns rows colors chars-per-pixel */
"64 64 17 1 ",
"  c #040404",
". c #2F1E16",
"X c #3F3013",
"o c #46000A",
"O c #770000",
"+ c #51301E",
"@ c #5D4717",
"# c #754227",
"$ c #4E6338",
"% c #B60000",
"& c #84482A",
"* c #8C4D2B",
"= c #AA5A33",
"- c #D97F40",
"; c #F6A954",
": c #F7D099",
"> c gray91",
/* pixels */
"$$$$$$$$$$$$$$$$$$$$$$$$$$$$$$$$$$$$$$$$$$$$$$$$$$$$$$$$$$$$$$$$",
"$$$$$$$$$$$$$$$$$$$$$$$$$$$$$$$$$$$$$$$$$$$$$$$$$$$$$$$$$$$$$$$$",
"$$$$$$$$$$$$$$$$$$$$$$$$$$$$$$$$$$$$$$$$$$$$$$$$$$$$$$$$$$$$$$$$",
"$$$$$$$$$$$$$$$$$$$$$$$$$$$$$$$$$$$$$$$$$$$$$$$$$$$$$$$$$$$$$$$$",
"$$$$$$$$$$$$$$$$$$$$                        $$$$$$$$$$$$$$$$$$$$",
"$$$$$$$$$$$$$$$$$$$$                        $$$$$$$$$$$$$$$$$$$$",
"$$$$$$$$$$$$$$$$$$$$                        $$$$$$$$$$$$$$$$$$$$",
"$$$$$$$$$$$$$$$$$$$$                        $$$$$$$$$$$$$$$$$$$$",
"$$$$$$$$$$$$$$$$    ++++####********####++++    $$$$$$$$$$$$$$$$",
"$$$$$$$$$$$$$$$$    ++++####********####++++    $$$$$$$$$$$$$$$$",
"$$$$$$$$$$$$$$$$    ++++####********####++++    $$$$$$$$$$$$$$$$",
"$$$$$$$$$$$$$$$$    ++++####********####++++    $$$$$$$$$$$$$$$$",
"$$$$$$$$$$$$    ....++++++++########++++++++....    $$$$$$$$$$$$",
"$$$$$$$$$$$$    ....++++++++########++++++++....    $$$$$$$$$$$$",
"$$$$$$$$$$$$    ....++++++++########++++++++....    $$$$$$$$$$$$",
"$$$$$$$$$$$$    ....++++++++########++++++++....    $$$$$$$$$$$$",
"$$$$$$$$$$$$    ........++++++++++++++++........    $$$$$$$$$$$$",
"$$$$$$$$$$$$    ........++++++++++++++++........    $$$$$$$$$$$$",
"$$$$$$$$$$$$    ........++++++++++++++++........    $$$$$$$$$$$$",
"$$$$$$$$$$$$    ........++++++++++++++++........    $$$$$$$$$$$$",
"$$$$$$$$$$$$    ........::::::::::::::::........    $$$$$$$$$$$$",
"$$$$$$$$$$$$    ........::::::::::::::::........    $$$$$$$$$$$$",
"$$$$$$$$$$$$    ........::::::::::::::::........    $$$$$$$$$$$$",
"$$$$$$$$$$$$    ........::::::::::::::::........    $$$$$$$$$$$$",
"$$$$$$$$$$$$    ....;;;;;;;;;;;;;;;;;;;;;;;;....    $$$$$$$$$$$$",
"$$$$$$$$$$$$    ....;;;;;;;;;;;;;;;;;;;;;;;;....    $$$$$$$$$$$$",
"$$$$$$$$$$$$    ....;;;;;;;;;;;;;;;;;;;;;;;;....    $$$$$$$$$$$$",
"$$$$$$$$$$$$    ....;;;;;;;;;;;;;;;;;;;;;;;;....    $$$$$$$$$$$$",
"$$$$$$$$$$$$    ====>>>>    ::::::::    >>>>====    $$$$$$$$$$$$",
"$$$$$$$$$$$$    ====>>>>    ::::::::    >>>>====    $$$$$$$$$$$$",
"$$$$$$$$$$$$    ====>>>>    ::::::::    >>>>====    $$$$$$$$$$$$",
"$$$$$$$$$$$$    ====>>>>    ::::::::    >>>>====    $$$$$$$$$$$$",
"$$$$$$$$$$$$$$$$    >>>>    ::::::::    >>>>    $$$$$$$$$$$$$$$$",
"$$$$$$$$$$$$$$$$    >>>>    ::::::::    >>>>    $$$$$$$$$$$$$$$$",
"$$$$$$$$$$$$$$$$    >>>>    ::::::::    >>>>    $$$$$$$$$$$$$$$$",
"$$$$$$$$$$$$$$$$    >>>>    ::::::::    >>>>    $$$$$$$$$$$$$$$$",
"$$$$$$$$$$$$    %%%%====;;;;;;;;;;;;;;;;====%%%%    $$$$$$$$$$$$",
"$$$$$$$$$$$$    %%%%====;;;;;;;;;;;;;;;;====%%%%    $$$$$$$$$$$$",
"$$$$$$$$$$$$    %%%%====;;;;;;;;;;;;;;;;====%%%%    $$$$$$$$$$$$",
"$$$$$$$$$$$$    %%%%====;;;;;;;;;;;;;;;;====%%%%    $$$$$$$$$$$$",
"$$$$$$$$    %%%%%%%%%%%%&&&&&&&&&&&&&&&&%%%%%%%%%%%%    $$$$$$$$",
"$$$$$$$$    %%%%%%%%%%%%&&&&&&&&&&&&&&&&%%%%%%%%%%%%    $$$$$$$$",
"$$$$$$$$    %%%%%%%%%%%%&&&&&&&&&&&&&&&&%%%%%%%%%%%%    $$$$$$$$",
"$$$$$$$$    %%%%%%%%%%%%&&&&&&&&&&&&&&&&%%%%%%%%%%%%    $$$$$$$$",
"$$$$    ;;;;;;;;    OOOO%%%%%%%%%%%%%%%%OOOO    ;;;;;;;;    $$$$",
"$$$$    ;;;;;;;;    OOOO%%%%%%%%%%%%%%%%OOOO    ;;;;;;;;    $$$$",
"$$$$    ;;;;;;;;    OOOO%%%%%%%%%%%%%%%%OOOO    ;;;;;;;;    $$$$",
"$$$$    ;;;;;;;;    OOOO%%%%%%%%%%%%%%%%OOOO    ;;;;;;;;    $$$$",
"$$$$    ;;;;----    OOOOOOOOOOOOOOOOOOOOOOOO    ----;;;;    $$$$",
"$$$$    ;;;;----    OOOOOOOOOOOOOOOOOOOOOOOO    ----;;;;    $$$$",
"$$$$    ;;;;----    OOOOOOOOOOOOOOOOOOOOOOOO    ----;;;;    $$$$",
"$$$$    ;;;;----    OOOOOOOOOOOOOOOOOOOOOOOO    ----;;;;    $$$$",
"$$$$$$$$            ooooOOOOOOOOOOOOOOOOoooo            $$$$$$$$",
"$$$$$$$$            ooooOOOOOOOOOOOOOOOOoooo            $$$$$$$$",
"$$$$$$$$            ooooOOOOOOOOOOOOOOOOoooo            $$$$$$$$",
"$$$$$$$$            ooooOOOOOOOOOOOOOOOOoooo            $$$$$$$$",
"$$$$$$$$$$$$$$$$    XXXXXXXX        XXXXXXXX    $$$$$$$$$$$$$$$$",
"$$$$$$$$$$$$$$$$    XXXXXXXX        XXXXXXXX    $$$$$$$$$$$$$$$$",
"$$$$$$$$$$$$$$$$    XXXXXXXX        XXXXXXXX    $$$$$$$$$$$$$$$$",
"$$$$$$$$$$$$$$$$    XXXXXXXX        XXXXXXXX    $$$$$$$$$$$$$$$$",
"$$$$$$$$$$$$$$$$    @@@@@@@@        @@@@@@@@    $$$$$$$$$$$$$$$$",
"$$$$$$$$$$$$$$$$    @@@@@@@@        @@@@@@@@    $$$$$$$$$$$$$$$$",
"$$$$$$$$$$$$$$$$    @@@@@@@@        @@@@@@@@    $$$$$$$$$$$$$$$$",
"$$$$$$$$$$$$$$$$    @@@@@@@@        @@@@@@@@    $$$$$$$$$$$$$$$$"
};
