/* XPM */
static char *Cexit1702940912[] = {
/* columns rows colors chars-per-pixel */
"64 64 6 1 ",
"  c #25131A",
". c #586738",
"X c #523B40",
"o c #895A45",
"O c #90919E",
"+ c #ADC1CF",
/* pixels */
"....                                                        ....",
"....                                                        ....",
"....                                                        ....",
"....                                                        ....",
"        OOOOOOOOOOOOOOOOOOOOOOOOOOOOOOOOOOOOOOOOOOOOOOOO        ",
"        OOOOOOOOOOOOOOOOOOOOOOOOOOOOOOOOOOOOOOOOOOOOOOOO        ",
"        OOOOOOOOOOOOOOOOOOOOOOOOOOOOOOOOOOOOOOOOOOOOOOOO        ",
"        OOOOOOOOOOOOOOOOOOOOOOOOOOOOOOOOOOOOOOOOOOOOOOOO        ",
"    OOOO++++    OOOO++++                ++++OOOO    ++++OOOO    ",
"    OOOO++++    OOOO++++                ++++OOOO    ++++OOOO    ",
"    OOOO++++    OOOO++++                ++++OOOO    ++++OOOO    ",
"    OOOO++++    OOOO++++                ++++OOOO    ++++OOOO    ",
"    OOOO        OOOO++++XXXXooooooooXXXX++++OOOO        OOOO    ",
"    OOOO        OOOO++++XXXXooooooooXXXX++++OOOO        OOOO    ",
"    OOOO        OOOO++++XXXXooooooooXXXX++++OOOO        OOOO    ",
"    OOOO        OOOO++++XXXXooooooooXXXX++++OOOO        OOOO    ",
"    ++++    XXXXOOOO++++++++++++++++++++++++OOOOXXXX    ++++    ",
"    ++++    XXXXOOOO++++++++++++++++++++++++OOOOXXXX    ++++    ",
"    ++++    XXXXOOOO++++++++++++++++++++++++OOOOXXXX    ++++    ",
"    ++++    XXXXOOOO++++++++++++++++++++++++OOOOXXXX    ++++    ",
"    ++++    oooo++++++++                ++++++++oooo    ++++    ",
"    ++++    oooo++++++++                ++++++++oooo    ++++    ",
"    ++++    oooo++++++++                ++++++++oooo    ++++    ",
"    ++++    oooo++++++++                ++++++++oooo    ++++    ",
"    ++++    oooo        XXXXooooooooXXXX        oooo    ++++    ",
"    ++++    oooo        XXXXooooooooXXXX        oooo    ++++    ",
"    ++++    oooo        XXXXooooooooXXXX        oooo    ++++    ",
"    ++++    oooo        XXXXooooooooXXXX        oooo    ++++    ",
"    ++++    ooooXXXXooooXXXXooooooooXXXXooooXXXXoooo    ++++    ",
"    ++++    ooooXXXXooooXXXXooooooooXXXXooooXXXXoooo    ++++    ",
"    ++++    ooooXXXXooooXXXXooooooooXXXXooooXXXXoooo    ++++    ",
"    ++++    ooooXXXXooooXXXXooooooooXXXXooooXXXXoooo    ++++    ",
"    ++++    ooooXXXXooooXXXXooooooooXXXXooooXXXXoooo    ++++    ",
"    ++++    ooooXXXXooooXXXXooooooooXXXXooooXXXXoooo    ++++    ",
"    ++++    ooooXXXXooooXXXXooooooooXXXXooooXXXXoooo    ++++    ",
"    ++++    ooooXXXXooooXXXXooooooooXXXXooooXXXXoooo    ++++    ",
"    ++++    ooooXXXXooooXXXXooooooooXXXXooooXXXXoooo    ++++    ",
"    ++++    ooooXXXXooooXXXXooooooooXXXXooooXXXXoooo    ++++    ",
"    ++++    ooooXXXXooooXXXXooooooooXXXXooooXXXXoooo    ++++    ",
"    ++++    ooooXXXXooooXXXXooooooooXXXXooooXXXXoooo    ++++    ",
"    OOOO    ooooXXXXooooXXXXooooooooXXXXooooXXXXoooo    OOOO    ",
"    OOOO    ooooXXXXooooXXXXooooooooXXXXooooXXXXoooo    OOOO    ",
"    OOOO    ooooXXXXooooXXXXooooooooXXXXooooXXXXoooo    OOOO    ",
"    OOOO    ooooXXXXooooXXXXooooooooXXXXooooXXXXoooo    OOOO    ",
"    ++++    ooooXXXXooooXXXXooooooooXXXXooooXXXXoooo    ++++    ",
"    ++++    ooooXXXXooooXXXXooooooooXXXXooooXXXXoooo    ++++    ",
"    ++++    ooooXXXXooooXXXXooooooooXXXXooooXXXXoooo    ++++    ",
"    ++++    ooooXXXXooooXXXXooooooooXXXXooooXXXXoooo    ++++    ",
"    OOOO    XXXXXXXXXXXXXXXXXXXXXXXXXXXXXXXXXXXXXXXX    OOOO    ",
"    OOOO    XXXXXXXXXXXXXXXXXXXXXXXXXXXXXXXXXXXXXXXX    OOOO    ",
"    OOOO    XXXXXXXXXXXXXXXXXXXXXXXXXXXXXXXXXXXXXXXX    OOOO    ",
"    OOOO    XXXXXXXXXXXXXXXXXXXXXXXXXXXXXXXXXXXXXXXX    OOOO    ",
"    OOOO++++                                        ++++OOOO    ",
"    OOOO++++                                        ++++OOOO    ",
"    OOOO++++                                        ++++OOOO    ",
"    OOOO++++                                        ++++OOOO    ",
"        OOOOOOOOOOOOOOOOOOOOOOOOOOOOOOOOOOOOOOOOOOOOOOOO        ",
"        OOOOOOOOOOOOOOOOOOOOOOOOOOOOOOOOOOOOOOOOOOOOOOOO        ",
"        OOOOOOOOOOOOOOOOOOOOOOOOOOOOOOOOOOOOOOOOOOOOOOOO        ",
"        OOOOOOOOOOOOOOOOOOOOOOOOOOOOOOOOOOOOOOOOOOOOOOOO        ",
"....                                                        ....",
"....                                                        ....",
"....                                                        ....",
"....                                                        ...."
};
