/* XPM */
static char *coin71703105515[] = {
/* columns rows colors chars-per-pixel */
"64 64 8 1 ",
"  c black",
". c #4D3533",
"X c #63413D",
"o c #586738",
"O c #704844",
"+ c #898989",
"@ c #A4A4A4",
"# c white",
/* pixels */
"oooooooooooooooo                                oooooooooooooooo",
"oooooooooooooooo                                oooooooooooooooo",
"oooooooooooooooo                                oooooooooooooooo",
"oooooooooooooooo                                oooooooooooooooo",
"oooooooo        OOOOOOOOOOOOOOOOOOOOOOOOOOOOOOOO        oooooooo",
"oooooooo        OOOOOOOOOOOOOOOOOOOOOOOOOOOOOOOO        oooooooo",
"oooooooo        OOOOOOOOOOOOOOOOOOOOOOOOOOOOOOOO        oooooooo",
"oooooooo        OOOOOOOOOOOOOOOOOOOOOOOOOOOOOOOO        oooooooo",
"oooo    @@@@XXXXOOOOOOOOOOOOOOOOOOOOOOOOOOOOOOOOXXXX++++    oooo",
"oooo    @@@@XXXXOOOOOOOOOOOOOOOOOOOOOOOOOOOOOOOOXXXX++++    oooo",
"oooo    @@@@XXXXOOOOOOOOOOOOOOOOOOOOOOOOOOOOOOOOXXXX++++    oooo",
"oooo    @@@@XXXXOOOOOOOOOOOOOOOOOOOOOOOOOOOOOOOOXXXX++++    oooo",
"    @@@@@@@@XXXXOOOOOOOOOOOOOOOOOOOOOOOOOOOOOOOOXXXX++++++++    ",
"    @@@@@@@@XXXXOOOOOOOOOOOOOOOOOOOOOOOOOOOOOOOOXXXX++++++++    ",
"    @@@@@@@@XXXXOOOOOOOOOOOOOOOOOOOOOOOOOOOOOOOOXXXX++++++++    ",
"    @@@@@@@@XXXXOOOOOOOOOOOOOOOOOOOOOOOOOOOOOOOOXXXX++++++++    ",
"    @@@@@@@@XXXXOOOOOOOOOOOOOOOOOOOOOOOOOOOOOOOOXXXX++++++++    ",
"    @@@@@@@@XXXXOOOOOOOOOOOOOOOOOOOOOOOOOOOOOOOOXXXX++++++++    ",
"    @@@@@@@@XXXXOOOOOOOOOOOOOOOOOOOOOOOOOOOOOOOOXXXX++++++++    ",
"    @@@@@@@@XXXXOOOOOOOOOOOOOOOOOOOOOOOOOOOOOOOOXXXX++++++++    ",
"    ++++++++XXXXOOOOOOOOOOOOOOOOOOOOOOOOOOOOOOOOXXXX@@@@@@@@    ",
"    ++++++++XXXXOOOOOOOOOOOOOOOOOOOOOOOOOOOOOOOOXXXX@@@@@@@@    ",
"    ++++++++XXXXOOOOOOOOOOOOOOOOOOOOOOOOOOOOOOOOXXXX@@@@@@@@    ",
"    ++++++++XXXXOOOOOOOOOOOOOOOOOOOOOOOOOOOOOOOOXXXX@@@@@@@@    ",
"    ++++++++XXXXOOOOOOOOOOOOOOOOOOOOOOOOOOOOOOOOXXXX@@@@@@@@    ",
"    ++++++++XXXXOOOOOOOOOOOOOOOOOOOOOOOOOOOOOOOOXXXX@@@@@@@@    ",
"    ++++++++XXXXOOOOOOOOOOOOOOOOOOOOOOOOOOOOOOOOXXXX@@@@@@@@    ",
"    ++++++++XXXXOOOOOOOOOOOOOOOOOOOOOOOOOOOOOOOOXXXX@@@@@@@@    ",
"    ++++++++XXXXXXXXOOOOOOOOOOOOOOOOOOOOOOOOXXXXXXXX@@@@@@@@    ",
"    ++++++++XXXXXXXXOOOOOOOOOOOOOOOOOOOOOOOOXXXXXXXX@@@@@@@@    ",
"    ++++++++XXXXXXXXOOOOOOOOOOOOOOOOOOOOOOOOXXXXXXXX@@@@@@@@    ",
"    ++++++++XXXXXXXXOOOOOOOOOOOOOOOOOOOOOOOOXXXXXXXX@@@@@@@@    ",
"    @@@@@@@@XXXXXXXXXXXXXXXX@@@@@@@@XXXXXXXXXXXXXXXX@@@@####    ",
"    @@@@@@@@XXXXXXXXXXXXXXXX@@@@@@@@XXXXXXXXXXXXXXXX@@@@####    ",
"    @@@@@@@@XXXXXXXXXXXXXXXX@@@@@@@@XXXXXXXXXXXXXXXX@@@@####    ",
"    @@@@@@@@XXXXXXXXXXXXXXXX@@@@@@@@XXXXXXXXXXXXXXXX@@@@####    ",
"    ++++++++++++++++++++@@@@@@@@@@@@@@@@++++++++++++########    ",
"    ++++++++++++++++++++@@@@@@@@@@@@@@@@++++++++++++########    ",
"    ++++++++++++++++++++@@@@@@@@@@@@@@@@++++++++++++########    ",
"    ++++++++++++++++++++@@@@@@@@@@@@@@@@++++++++++++########    ",
"    ++++++++........OOOO@@@@        @@@@OOOO....############    ",
"    ++++++++........OOOO@@@@        @@@@OOOO....############    ",
"    ++++++++........OOOO@@@@        @@@@OOOO....############    ",
"    ++++++++........OOOO@@@@        @@@@OOOO....############    ",
"    ++++++++....OOOOOOOOOOOO@@@@@@@@OOOOOOOO################    ",
"    ++++++++....OOOOOOOOOOOO@@@@@@@@OOOOOOOO################    ",
"    ++++++++....OOOOOOOOOOOO@@@@@@@@OOOOOOOO################    ",
"    ++++++++....OOOOOOOOOOOO@@@@@@@@OOOOOOOO################    ",
"    ++++++++....OOOOOOOOOOOOOOOOOOOOOOOO####################    ",
"    ++++++++....OOOOOOOOOOOOOOOOOOOOOOOO####################    ",
"    ++++++++....OOOOOOOOOOOOOOOOOOOOOOOO####################    ",
"    ++++++++....OOOOOOOOOOOOOOOOOOOOOOOO####################    ",
"    ++++++++....OOOOOOOOOOOOOOOOOOOO####################++++    ",
"    ++++++++....OOOOOOOOOOOOOOOOOOOO####################++++    ",
"    ++++++++....OOOOOOOOOOOOOOOOOOOO####################++++    ",
"    ++++++++....OOOOOOOOOOOOOOOOOOOO####################++++    ",
"    ++++++++........OOOOOOOOOOOO####################++++++++    ",
"    ++++++++........OOOOOOOOOOOO####################++++++++    ",
"    ++++++++........OOOOOOOOOOOO####################++++++++    ",
"    ++++++++........OOOOOOOOOOOO####################++++++++    ",
"oooo                                                        oooo",
"oooo                                                        oooo",
"oooo                                                        oooo",
"oooo                                                        oooo"
};
