/* XPM */
static char *coin11703105513[] = {
/* columns rows colors chars-per-pixel */
"64 64 7 1 ",
"  c black",
". c #4D3533",
"X c #63413D",
"o c #586738",
"O c #704844",
"+ c #898989",
"@ c #A4A4A4",
/* pixels */
"oooooooooooooooo                                oooooooooooooooo",
"oooooooooooooooo                                oooooooooooooooo",
"oooooooooooooooo                                oooooooooooooooo",
"oooooooooooooooo                                oooooooooooooooo",
"oooooooo        OOOOOOOOOOOOOOOOOOOOOOOOOOOOOOOO        oooooooo",
"oooooooo        OOOOOOOOOOOOOOOOOOOOOOOOOOOOOOOO        oooooooo",
"oooooooo        OOOOOOOOOOOOOOOOOOOOOOOOOOOOOOOO        oooooooo",
"oooooooo        OOOOOOOOOOOOOOOOOOOOOOOOOOOOOOOO        oooooooo",
"oooo    @@@@XXXXOOOOOOOOOOOOOOOOOOOOOOOOOOOOOOOOXXXX++++    oooo",
"oooo    @@@@XXXXOOOOOOOOOOOOOOOOOOOOOOOOOOOOOOOOXXXX++++    oooo",
"oooo    @@@@XXXXOOOOOOOOOOOOOOOOOOOOOOOOOOOOOOOOXXXX++++    oooo",
"oooo    @@@@XXXXOOOOOOOOOOOOOOOOOOOOOOOOOOOOOOOOXXXX++++    oooo",
"    @@@@@@@@XXXXOOOOOOOOOOOOOOOOOOOOOOOOOOOOOOOOXXXX++++++++    ",
"    @@@@@@@@XXXXOOOOOOOOOOOOOOOOOOOOOOOOOOOOOOOOXXXX++++++++    ",
"    @@@@@@@@XXXXOOOOOOOOOOOOOOOOOOOOOOOOOOOOOOOOXXXX++++++++    ",
"    @@@@@@@@XXXXOOOOOOOOOOOOOOOOOOOOOOOOOOOOOOOOXXXX++++++++    ",
"    @@@@@@@@XXXXOOOOOOOOOOOOOOOOOOOOOOOOOOOOOOOOXXXX++++++++    ",
"    @@@@@@@@XXXXOOOOOOOOOOOOOOOOOOOOOOOOOOOOOOOOXXXX++++++++    ",
"    @@@@@@@@XXXXOOOOOOOOOOOOOOOOOOOOOOOOOOOOOOOOXXXX++++++++    ",
"    @@@@@@@@XXXXOOOOOOOOOOOOOOOOOOOOOOOOOOOOOOOOXXXX++++++++    ",
"    ++++++++XXXXOOOOOOOOOOOOOOOOOOOOOOOOOOOOOOOOXXXX@@@@@@@@    ",
"    ++++++++XXXXOOOOOOOOOOOOOOOOOOOOOOOOOOOOOOOOXXXX@@@@@@@@    ",
"    ++++++++XXXXOOOOOOOOOOOOOOOOOOOOOOOOOOOOOOOOXXXX@@@@@@@@    ",
"    ++++++++XXXXOOOOOOOOOOOOOOOOOOOOOOOOOOOOOOOOXXXX@@@@@@@@    ",
"    ++++++++XXXXOOOOOOOOOOOOOOOOOOOOOOOOOOOOOOOOXXXX@@@@@@@@    ",
"    ++++++++XXXXOOOOOOOOOOOOOOOOOOOOOOOOOOOOOOOOXXXX@@@@@@@@    ",
"    ++++++++XXXXOOOOOOOOOOOOOOOOOOOOOOOOOOOOOOOOXXXX@@@@@@@@    ",
"    ++++++++XXXXOOOOOOOOOOOOOOOOOOOOOOOOOOOOOOOOXXXX@@@@@@@@    ",
"    ++++++++XXXXXXXXOOOOOOOOOOOOOOOOOOOOOOOOXXXXXXXX@@@@@@@@    ",
"    ++++++++XXXXXXXXOOOOOOOOOOOOOOOOOOOOOOOOXXXXXXXX@@@@@@@@    ",
"    ++++++++XXXXXXXXOOOOOOOOOOOOOOOOOOOOOOOOXXXXXXXX@@@@@@@@    ",
"    ++++++++XXXXXXXXOOOOOOOOOOOOOOOOOOOOOOOOXXXXXXXX@@@@@@@@    ",
"    @@@@@@@@XXXXXXXXXXXXXXXX@@@@@@@@XXXXXXXXXXXXXXXX@@@@@@@@    ",
"    @@@@@@@@XXXXXXXXXXXXXXXX@@@@@@@@XXXXXXXXXXXXXXXX@@@@@@@@    ",
"    @@@@@@@@XXXXXXXXXXXXXXXX@@@@@@@@XXXXXXXXXXXXXXXX@@@@@@@@    ",
"    @@@@@@@@XXXXXXXXXXXXXXXX@@@@@@@@XXXXXXXXXXXXXXXX@@@@@@@@    ",
"    ++++++++++++++++++++@@@@@@@@@@@@@@@@++++++++++++++++++++    ",
"    ++++++++++++++++++++@@@@@@@@@@@@@@@@++++++++++++++++++++    ",
"    ++++++++++++++++++++@@@@@@@@@@@@@@@@++++++++++++++++++++    ",
"    ++++++++++++++++++++@@@@@@@@@@@@@@@@++++++++++++++++++++    ",
"    ++++++++........OOOO@@@@        @@@@OOOO........++++++++    ",
"    ++++++++........OOOO@@@@        @@@@OOOO........++++++++    ",
"    ++++++++........OOOO@@@@        @@@@OOOO........++++++++    ",
"    ++++++++........OOOO@@@@        @@@@OOOO........++++++++    ",
"    ++++++++....OOOOOOOOOOOO@@@@@@@@OOOOOOOOOOOO....++++++++    ",
"    ++++++++....OOOOOOOOOOOO@@@@@@@@OOOOOOOOOOOO....++++++++    ",
"    ++++++++....OOOOOOOOOOOO@@@@@@@@OOOOOOOOOOOO....++++++++    ",
"    ++++++++....OOOOOOOOOOOO@@@@@@@@OOOOOOOOOOOO....++++++++    ",
"    ++++++++....OOOOOOOOOOOOOOOOOOOOOOOOOOOOOOOO....++++++++    ",
"    ++++++++....OOOOOOOOOOOOOOOOOOOOOOOOOOOOOOOO....++++++++    ",
"    ++++++++....OOOOOOOOOOOOOOOOOOOOOOOOOOOOOOOO....++++++++    ",
"    ++++++++....OOOOOOOOOOOOOOOOOOOOOOOOOOOOOOOO....++++++++    ",
"    ++++++++....OOOOOOOOOOOOOOOOOOOOOOOOOOOOOOOO....++++++++    ",
"    ++++++++....OOOOOOOOOOOOOOOOOOOOOOOOOOOOOOOO....++++++++    ",
"    ++++++++....OOOOOOOOOOOOOOOOOOOOOOOOOOOOOOOO....++++++++    ",
"    ++++++++....OOOOOOOOOOOOOOOOOOOOOOOOOOOOOOOO....++++++++    ",
"    ++++++++........OOOOOOOOOOOOOOOOOOOOOOOO........++++++++    ",
"    ++++++++........OOOOOOOOOOOOOOOOOOOOOOOO........++++++++    ",
"    ++++++++........OOOOOOOOOOOOOOOOOOOOOOOO........++++++++    ",
"    ++++++++........OOOOOOOOOOOOOOOOOOOOOOOO........++++++++    ",
"oooo                                                        oooo",
"oooo                                                        oooo",
"oooo                                                        oooo",
"oooo                                                        oooo"
};
