/* XPM */
static char *coin41703105514[] = {
/* columns rows colors chars-per-pixel */
"64 64 8 1 ",
"  c black",
". c #4D3533",
"X c #63413D",
"o c #586738",
"O c #704844",
"+ c #898989",
"@ c #A4A4A4",
"# c white",
/* pixels */
"oooooooooooooooo                                oooooooooooooooo",
"oooooooooooooooo                                oooooooooooooooo",
"oooooooooooooooo                                oooooooooooooooo",
"oooooooooooooooo                                oooooooooooooooo",
"oooooooo    ############OOOOOOOOOOOOOOOOOOOOOOOO        oooooooo",
"oooooooo    ############OOOOOOOOOOOOOOOOOOOOOOOO        oooooooo",
"oooooooo    ############OOOOOOOOOOOOOOOOOOOOOOOO        oooooooo",
"oooooooo    ############OOOOOOOOOOOOOOOOOOOOOOOO        oooooooo",
"oooo    ############OOOOOOOOOOOOOOOOOOOOOOOOOOOOXXXX++++    oooo",
"oooo    ############OOOOOOOOOOOOOOOOOOOOOOOOOOOOXXXX++++    oooo",
"oooo    ############OOOOOOOOOOOOOOOOOOOOOOOOOOOOXXXX++++    oooo",
"oooo    ############OOOOOOOOOOOOOOOOOOOOOOOOOOOOXXXX++++    oooo",
"    ############OOOOOOOOOOOOOOOOOOOOOOOOOOOOOOOOXXXX++++++++    ",
"    ############OOOOOOOOOOOOOOOOOOOOOOOOOOOOOOOOXXXX++++++++    ",
"    ############OOOOOOOOOOOOOOOOOOOOOOOOOOOOOOOOXXXX++++++++    ",
"    ############OOOOOOOOOOOOOOOOOOOOOOOOOOOOOOOOXXXX++++++++    ",
"    ########XXXXOOOOOOOOOOOOOOOOOOOOOOOOOOOOOOOOXXXX++++++++    ",
"    ########XXXXOOOOOOOOOOOOOOOOOOOOOOOOOOOOOOOOXXXX++++++++    ",
"    ########XXXXOOOOOOOOOOOOOOOOOOOOOOOOOOOOOOOOXXXX++++++++    ",
"    ########XXXXOOOOOOOOOOOOOOOOOOOOOOOOOOOOOOOOXXXX++++++++    ",
"    ####++++XXXXOOOOOOOOOOOOOOOOOOOOOOOOOOOOOOOOXXXX@@@@@@@@    ",
"    ####++++XXXXOOOOOOOOOOOOOOOOOOOOOOOOOOOOOOOOXXXX@@@@@@@@    ",
"    ####++++XXXXOOOOOOOOOOOOOOOOOOOOOOOOOOOOOOOOXXXX@@@@@@@@    ",
"    ####++++XXXXOOOOOOOOOOOOOOOOOOOOOOOOOOOOOOOOXXXX@@@@@@@@    ",
"    ++++++++XXXXOOOOOOOOOOOOOOOOOOOOOOOOOOOOOOOOXXXX@@@@@@@@    ",
"    ++++++++XXXXOOOOOOOOOOOOOOOOOOOOOOOOOOOOOOOOXXXX@@@@@@@@    ",
"    ++++++++XXXXOOOOOOOOOOOOOOOOOOOOOOOOOOOOOOOOXXXX@@@@@@@@    ",
"    ++++++++XXXXOOOOOOOOOOOOOOOOOOOOOOOOOOOOOOOOXXXX@@@@@@@@    ",
"    ++++++++XXXXXXXXOOOOOOOOOOOOOOOOOOOOOOOOXXXXXXXX@@@@@@@@    ",
"    ++++++++XXXXXXXXOOOOOOOOOOOOOOOOOOOOOOOOXXXXXXXX@@@@@@@@    ",
"    ++++++++XXXXXXXXOOOOOOOOOOOOOOOOOOOOOOOOXXXXXXXX@@@@@@@@    ",
"    ++++++++XXXXXXXXOOOOOOOOOOOOOOOOOOOOOOOOXXXXXXXX@@@@@@@@    ",
"    @@@@@@@@XXXXXXXXXXXXXXXX@@@@@@@@XXXXXXXXXXXXXXXX@@@@@@@@    ",
"    @@@@@@@@XXXXXXXXXXXXXXXX@@@@@@@@XXXXXXXXXXXXXXXX@@@@@@@@    ",
"    @@@@@@@@XXXXXXXXXXXXXXXX@@@@@@@@XXXXXXXXXXXXXXXX@@@@@@@@    ",
"    @@@@@@@@XXXXXXXXXXXXXXXX@@@@@@@@XXXXXXXXXXXXXXXX@@@@@@@@    ",
"    ++++++++++++++++++++@@@@@@@@@@@@@@@@++++++++++++++++++++    ",
"    ++++++++++++++++++++@@@@@@@@@@@@@@@@++++++++++++++++++++    ",
"    ++++++++++++++++++++@@@@@@@@@@@@@@@@++++++++++++++++++++    ",
"    ++++++++++++++++++++@@@@@@@@@@@@@@@@++++++++++++++++++++    ",
"    ++++++++........OOOO@@@@        @@@@OOOO........++++++++    ",
"    ++++++++........OOOO@@@@        @@@@OOOO........++++++++    ",
"    ++++++++........OOOO@@@@        @@@@OOOO........++++++++    ",
"    ++++++++........OOOO@@@@        @@@@OOOO........++++++++    ",
"    ++++++++....OOOOOOOOOOOO@@@@@@@@OOOOOOOOOOOO....++++++++    ",
"    ++++++++....OOOOOOOOOOOO@@@@@@@@OOOOOOOOOOOO....++++++++    ",
"    ++++++++....OOOOOOOOOOOO@@@@@@@@OOOOOOOOOOOO....++++++++    ",
"    ++++++++....OOOOOOOOOOOO@@@@@@@@OOOOOOOOOOOO....++++++++    ",
"    ++++++++....OOOOOOOOOOOOOOOOOOOOOOOOOOOOOOOO....++++++++    ",
"    ++++++++....OOOOOOOOOOOOOOOOOOOOOOOOOOOOOOOO....++++++++    ",
"    ++++++++....OOOOOOOOOOOOOOOOOOOOOOOOOOOOOOOO....++++++++    ",
"    ++++++++....OOOOOOOOOOOOOOOOOOOOOOOOOOOOOOOO....++++++++    ",
"    ++++++++....OOOOOOOOOOOOOOOOOOOOOOOOOOOOOOOO....++++++++    ",
"    ++++++++....OOOOOOOOOOOOOOOOOOOOOOOOOOOOOOOO....++++++++    ",
"    ++++++++....OOOOOOOOOOOOOOOOOOOOOOOOOOOOOOOO....++++++++    ",
"    ++++++++....OOOOOOOOOOOOOOOOOOOOOOOOOOOOOOOO....++++++++    ",
"    ++++++++........OOOOOOOOOOOOOOOOOOOOOOOO........++++++++    ",
"    ++++++++........OOOOOOOOOOOOOOOOOOOOOOOO........++++++++    ",
"    ++++++++........OOOOOOOOOOOOOOOOOOOOOOOO........++++++++    ",
"    ++++++++........OOOOOOOOOOOOOOOOOOOOOOOO........++++++++    ",
"oooo                                                        oooo",
"oooo                                                        oooo",
"oooo                                                        oooo",
"oooo                                                        oooo"
};
