/* XPM */
static char *coin61703105515[] = {
/* columns rows colors chars-per-pixel */
"64 64 8 1 ",
"  c black",
". c #4D3533",
"X c #63413D",
"o c #586738",
"O c #704844",
"+ c #898989",
"@ c #A4A4A4",
"# c white",
/* pixels */
"oooooooooooooooo                                oooooooooooooooo",
"oooooooooooooooo                                oooooooooooooooo",
"oooooooooooooooo                                oooooooooooooooo",
"oooooooooooooooo                                oooooooooooooooo",
"oooooooo        OOOOOOOOOOOOOOOOOOOOOOOOOOOOOOOO        oooooooo",
"oooooooo        OOOOOOOOOOOOOOOOOOOOOOOOOOOOOOOO        oooooooo",
"oooooooo        OOOOOOOOOOOOOOOOOOOOOOOOOOOOOOOO        oooooooo",
"oooooooo        OOOOOOOOOOOOOOOOOOOOOOOOOOOOOOOO        oooooooo",
"oooo    @@@@XXXXOOOOOOOOOOOOOOOOOOOOOOOOOOOOOOOO########    oooo",
"oooo    @@@@XXXXOOOOOOOOOOOOOOOOOOOOOOOOOOOOOOOO########    oooo",
"oooo    @@@@XXXXOOOOOOOOOOOOOOOOOOOOOOOOOOOOOOOO########    oooo",
"oooo    @@@@XXXXOOOOOOOOOOOOOOOOOOOOOOOOOOOOOOOO########    oooo",
"    @@@@@@@@XXXXOOOOOOOOOOOOOOOOOOOOOOOOOOOO################    ",
"    @@@@@@@@XXXXOOOOOOOOOOOOOOOOOOOOOOOOOOOO################    ",
"    @@@@@@@@XXXXOOOOOOOOOOOOOOOOOOOOOOOOOOOO################    ",
"    @@@@@@@@XXXXOOOOOOOOOOOOOOOOOOOOOOOOOOOO################    ",
"    @@@@@@@@XXXXOOOOOOOOOOOOOOOOOOOOOOOO####################    ",
"    @@@@@@@@XXXXOOOOOOOOOOOOOOOOOOOOOOOO####################    ",
"    @@@@@@@@XXXXOOOOOOOOOOOOOOOOOOOOOOOO####################    ",
"    @@@@@@@@XXXXOOOOOOOOOOOOOOOOOOOOOOOO####################    ",
"    ++++++++XXXXOOOOOOOOOOOOOOOOOOOO####################@@@@    ",
"    ++++++++XXXXOOOOOOOOOOOOOOOOOOOO####################@@@@    ",
"    ++++++++XXXXOOOOOOOOOOOOOOOOOOOO####################@@@@    ",
"    ++++++++XXXXOOOOOOOOOOOOOOOOOOOO####################@@@@    ",
"    ++++++++XXXXOOOOOOOOOOOOOOOO####################@@@@@@@@    ",
"    ++++++++XXXXOOOOOOOOOOOOOOOO####################@@@@@@@@    ",
"    ++++++++XXXXOOOOOOOOOOOOOOOO####################@@@@@@@@    ",
"    ++++++++XXXXOOOOOOOOOOOOOOOO####################@@@@@@@@    ",
"    ++++++++XXXXXXXXOOOOOOOO####################XXXX@@@@@@@@    ",
"    ++++++++XXXXXXXXOOOOOOOO####################XXXX@@@@@@@@    ",
"    ++++++++XXXXXXXXOOOOOOOO####################XXXX@@@@@@@@    ",
"    ++++++++XXXXXXXXOOOOOOOO####################XXXX@@@@@@@@    ",
"    @@@@@@@@XXXXXXXXXXXX####################XXXXXXXX@@@@@@@@    ",
"    @@@@@@@@XXXXXXXXXXXX####################XXXXXXXX@@@@@@@@    ",
"    @@@@@@@@XXXXXXXXXXXX####################XXXXXXXX@@@@@@@@    ",
"    @@@@@@@@XXXXXXXXXXXX####################XXXXXXXX@@@@@@@@    ",
"    ++++++++++++++++####################++++++++++++++++++++    ",
"    ++++++++++++++++####################++++++++++++++++++++    ",
"    ++++++++++++++++####################++++++++++++++++++++    ",
"    ++++++++++++++++####################++++++++++++++++++++    ",
"    ++++++++....####################@@@@OOOO........++++++++    ",
"    ++++++++....####################@@@@OOOO........++++++++    ",
"    ++++++++....####################@@@@OOOO........++++++++    ",
"    ++++++++....####################@@@@OOOO........++++++++    ",
"    ++++++++####################@@@@OOOOOOOOOOOO....++++++++    ",
"    ++++++++####################@@@@OOOOOOOOOOOO....++++++++    ",
"    ++++++++####################@@@@OOOOOOOOOOOO....++++++++    ",
"    ++++++++####################@@@@OOOOOOOOOOOO....++++++++    ",
"    ++++####################OOOOOOOOOOOOOOOOOOOO....++++++++    ",
"    ++++####################OOOOOOOOOOOOOOOOOOOO....++++++++    ",
"    ++++####################OOOOOOOOOOOOOOOOOOOO....++++++++    ",
"    ++++####################OOOOOOOOOOOOOOOOOOOO....++++++++    ",
"    ####################OOOOOOOOOOOOOOOOOOOOOOOO....++++++++    ",
"    ####################OOOOOOOOOOOOOOOOOOOOOOOO....++++++++    ",
"    ####################OOOOOOOOOOOOOOOOOOOOOOOO....++++++++    ",
"    ####################OOOOOOOOOOOOOOOOOOOOOOOO....++++++++    ",
"    ################OOOOOOOOOOOOOOOOOOOOOOOO........++++++++    ",
"    ################OOOOOOOOOOOOOOOOOOOOOOOO........++++++++    ",
"    ################OOOOOOOOOOOOOOOOOOOOOOOO........++++++++    ",
"    ################OOOOOOOOOOOOOOOOOOOOOOOO........++++++++    ",
"oooo                                                        oooo",
"oooo                                                        oooo",
"oooo                                                        oooo",
"oooo                                                        oooo"
};
