/* XPM */
static char *coin1702940913[] = {
/* columns rows colors chars-per-pixel */
"64 64 25 1 ",
"  c #070707",
". c #412517",
"X c #5D321C",
"o c #58362A",
"O c #703A21",
"+ c #586738",
"@ c #565656",
"# c #767676",
"$ c #A84D00",
"% c #B95700",
"& c #835120",
"* c #9F6727",
"= c #D28100",
"- c #EBBB00",
"; c #CB9237",
": c #F0CC00",
"> c #F6FF00",
", c #E9B15C",
"< c #9E9E96",
"1 c #FFFFAD",
"2 c #FFFFBB",
"3 c #C1C1C1",
"4 c #FFFFDB",
"5 c #FFFFE7",
"6 c #FFFFF5",
/* pixels */
"++++++++++++++++        ++++++++++++++++++++++++++++++++++++++++",
"++++++++++++++++        ++++++++++++++++++++++++++++++++++++++++",
"++++++++++++++++        ++++++++++++++++++++++++++++++++++++++++",
"++++++++++++++++        ++++++++++++++++++++++++++++++++++++++++",
"++++++++++++    5555>>>>                    ++++++++++++++++++++",
"++++++++++++    5555>>>>                    ++++++++++++++++++++",
"++++++++++++    5555>>>>                    ++++++++++++++++++++",
"++++++++++++    5555>>>>                    ++++++++++++++++++++",
"++++++++    ::::11115555>>>>,,,,;;;;,,,,&&&&    ++++++++++++++++",
"++++++++    ::::11115555>>>>,,,,;;;;,,,,&&&&    ++++++++++++++++",
"++++++++    ::::11115555>>>>,,,,;;;;,,,,&&&&    ++++++++++++++++",
"++++++++    ::::11115555>>>>,,,,;;;;,,,,&&&&    ++++++++++++++++",
"++++        2222--------====$$$$OOOO;;;;,,,,            ++++++++",
"++++        2222--------====$$$$OOOO;;;;,,,,            ++++++++",
"++++        2222--------====$$$$OOOO;;;;,,,,            ++++++++",
"++++        2222--------====$$$$OOOO;;;;,,,,            ++++++++",
"++++    44444444222266666666====$$$$oooo,,,,&&&&;;;;OOOO    ++++",
"++++    44444444222266666666====$$$$oooo,,,,&&&&;;;;OOOO    ++++",
"++++    44444444222266666666====$$$$oooo,,,,&&&&;;;;OOOO    ++++",
"++++    44444444222266666666====$$$$oooo,,,,&&&&;;;;OOOO    ++++",
"++++    2222====----66662222----====;;;;,,,,&&&&,,,,,,,,    ++++",
"++++    2222====----66662222----====;;;;,,,,&&&&,,,,,,,,    ++++",
"++++    2222====----66662222----====;;;;,,,,&&&&,,,,,,,,    ++++",
"++++    2222====----66662222----====;;;;,,,,&&&&,,,,,,,,    ++++",
"++++++++    ****5555>>>>::::::::;;;;,,,,****OOOO;;;;&&&&    ++++",
"++++++++    ****5555>>>>::::::::;;;;,,,,****OOOO;;;;&&&&    ++++",
"++++++++    ****5555>>>>::::::::;;;;,,,,****OOOO;;;;&&&&    ++++",
"++++++++    ****5555>>>>::::::::;;;;,,,,****OOOO;;;;&&&&    ++++",
"++++++++    OOOO::::%%%%********OOOO****OOOO....OOOOOOOO    ++++",
"++++++++    OOOO::::%%%%********OOOO****OOOO....OOOOOOOO    ++++",
"++++++++    OOOO::::%%%%********OOOO****OOOO....OOOOOOOO    ++++",
"++++++++    OOOO::::%%%%********OOOO****OOOO....OOOOOOOO    ++++",
"++++++++    @@@@****OOOO********OOOO****@@@@    ....&&&&    ++++",
"++++++++    @@@@****OOOO********OOOO****@@@@    ....&&&&    ++++",
"++++++++    @@@@****OOOO********OOOO****@@@@    ....&&&&    ++++",
"++++++++    @@@@****OOOO********OOOO****@@@@    ....&&&&    ++++",
"++++++++    OOOO####<<<<33333333<<<<####OOOO    ....OOOO    ++++",
"++++++++    OOOO####<<<<33333333<<<<####OOOO    ....OOOO    ++++",
"++++++++    OOOO####<<<<33333333<<<<####OOOO    ....OOOO    ++++",
"++++++++    OOOO####<<<<33333333<<<<####OOOO    ....OOOO    ++++",
"++++++++    OOOO&&&&XXXX&&&&&&&&XXXX&&&&OOOO....OOOOOOOO    ++++",
"++++++++    OOOO&&&&XXXX&&&&&&&&XXXX&&&&OOOO....OOOOOOOO    ++++",
"++++++++    OOOO&&&&XXXX&&&&&&&&XXXX&&&&OOOO....OOOOOOOO    ++++",
"++++++++    OOOO&&&&XXXX&&&&&&&&XXXX&&&&OOOO....OOOOOOOO    ++++",
"++++++++    @@@@&&&&XXXX&&&&&&&&XXXX&&&&@@@@OOOOOOOO    ++++++++",
"++++++++    @@@@&&&&XXXX&&&&&&&&XXXX&&&&@@@@OOOOOOOO    ++++++++",
"++++++++    @@@@&&&&XXXX&&&&&&&&XXXX&&&&@@@@OOOOOOOO    ++++++++",
"++++++++    @@@@&&&&XXXX&&&&&&&&XXXX&&&&@@@@OOOOOOOO    ++++++++",
"++++++++    OOOO####<<<<33333333<<<<####OOOO        ++++++++++++",
"++++++++    OOOO####<<<<33333333<<<<####OOOO        ++++++++++++",
"++++++++    OOOO####<<<<33333333<<<<####OOOO        ++++++++++++",
"++++++++    OOOO####<<<<33333333<<<<####OOOO        ++++++++++++",
"++++++++++++    OOOOOOOOOOOOOOOOOOOOOOOO    ++++++++++++++++++++",
"++++++++++++    OOOOOOOOOOOOOOOOOOOOOOOO    ++++++++++++++++++++",
"++++++++++++    OOOOOOOOOOOOOOOOOOOOOOOO    ++++++++++++++++++++",
"++++++++++++    OOOOOOOOOOOOOOOOOOOOOOOO    ++++++++++++++++++++",
"++++++++++++++++                        ++++++++++++++++++++++++",
"++++++++++++++++                        ++++++++++++++++++++++++",
"++++++++++++++++                        ++++++++++++++++++++++++",
"++++++++++++++++                        ++++++++++++++++++++++++",
"++++++++++++++++++++++++++++++++++++++++++++++++++++++++++++++++",
"++++++++++++++++++++++++++++++++++++++++++++++++++++++++++++++++",
"++++++++++++++++++++++++++++++++++++++++++++++++++++++++++++++++",
"++++++++++++++++++++++++++++++++++++++++++++++++++++++++++++++++"
};
