/* XPM */
static char *coin51703105514[] = {
/* columns rows colors chars-per-pixel */
"64 64 8 1 ",
"  c black",
". c #4D3533",
"X c #63413D",
"o c #586738",
"O c #704844",
"+ c #898989",
"@ c #A4A4A4",
"# c white",
/* pixels */
"oooooooooooooooo                                oooooooooooooooo",
"oooooooooooooooo                                oooooooooooooooo",
"oooooooooooooooo                                oooooooooooooooo",
"oooooooooooooooo                                oooooooooooooooo",
"oooooooo        OOOOOOOOOOOO####################        oooooooo",
"oooooooo        OOOOOOOOOOOO####################        oooooooo",
"oooooooo        OOOOOOOOOOOO####################        oooooooo",
"oooooooo        OOOOOOOOOOOO####################        oooooooo",
"oooo    @@@@XXXXOOOOOOOO####################OOOOXXXX++++    oooo",
"oooo    @@@@XXXXOOOOOOOO####################OOOOXXXX++++    oooo",
"oooo    @@@@XXXXOOOOOOOO####################OOOOXXXX++++    oooo",
"oooo    @@@@XXXXOOOOOOOO####################OOOOXXXX++++    oooo",
"    @@@@@@@@XXXXOOOO####################OOOOOOOOXXXX++++++++    ",
"    @@@@@@@@XXXXOOOO####################OOOOOOOOXXXX++++++++    ",
"    @@@@@@@@XXXXOOOO####################OOOOOOOOXXXX++++++++    ",
"    @@@@@@@@XXXXOOOO####################OOOOOOOOXXXX++++++++    ",
"    @@@@@@@@XXXX####################OOOOOOOOOOOOXXXX++++++++    ",
"    @@@@@@@@XXXX####################OOOOOOOOOOOOXXXX++++++++    ",
"    @@@@@@@@XXXX####################OOOOOOOOOOOOXXXX++++++++    ",
"    @@@@@@@@XXXX####################OOOOOOOOOOOOXXXX++++++++    ",
"    ++++++++####################OOOOOOOOOOOOOOOOXXXX@@@@@@@@    ",
"    ++++++++####################OOOOOOOOOOOOOOOOXXXX@@@@@@@@    ",
"    ++++++++####################OOOOOOOOOOOOOOOOXXXX@@@@@@@@    ",
"    ++++++++####################OOOOOOOOOOOOOOOOXXXX@@@@@@@@    ",
"    ++++####################OOOOOOOOOOOOOOOOOOOOXXXX@@@@@@@@    ",
"    ++++####################OOOOOOOOOOOOOOOOOOOOXXXX@@@@@@@@    ",
"    ++++####################OOOOOOOOOOOOOOOOOOOOXXXX@@@@@@@@    ",
"    ++++####################OOOOOOOOOOOOOOOOOOOOXXXX@@@@@@@@    ",
"    ####################OOOOOOOOOOOOOOOOOOOOXXXXXXXX@@@@@@@@    ",
"    ####################OOOOOOOOOOOOOOOOOOOOXXXXXXXX@@@@@@@@    ",
"    ####################OOOOOOOOOOOOOOOOOOOOXXXXXXXX@@@@@@@@    ",
"    ####################OOOOOOOOOOOOOOOOOOOOXXXXXXXX@@@@@@@@    ",
"    ################XXXXXXXX@@@@@@@@XXXXXXXXXXXXXXXX@@@@@@@@    ",
"    ################XXXXXXXX@@@@@@@@XXXXXXXXXXXXXXXX@@@@@@@@    ",
"    ################XXXXXXXX@@@@@@@@XXXXXXXXXXXXXXXX@@@@@@@@    ",
"    ################XXXXXXXX@@@@@@@@XXXXXXXXXXXXXXXX@@@@@@@@    ",
"    ############++++++++@@@@@@@@@@@@@@@@++++++++++++++++++++    ",
"    ############++++++++@@@@@@@@@@@@@@@@++++++++++++++++++++    ",
"    ############++++++++@@@@@@@@@@@@@@@@++++++++++++++++++++    ",
"    ############++++++++@@@@@@@@@@@@@@@@++++++++++++++++++++    ",
"    ########........OOOO@@@@        @@@@OOOO........++++++++    ",
"    ########........OOOO@@@@        @@@@OOOO........++++++++    ",
"    ########........OOOO@@@@        @@@@OOOO........++++++++    ",
"    ########........OOOO@@@@        @@@@OOOO........++++++++    ",
"    ####++++....OOOOOOOOOOOO@@@@@@@@OOOOOOOOOOOO....++++++++    ",
"    ####++++....OOOOOOOOOOOO@@@@@@@@OOOOOOOOOOOO....++++++++    ",
"    ####++++....OOOOOOOOOOOO@@@@@@@@OOOOOOOOOOOO....++++++++    ",
"    ####++++....OOOOOOOOOOOO@@@@@@@@OOOOOOOOOOOO....++++++++    ",
"    ++++++++....OOOOOOOOOOOOOOOOOOOOOOOOOOOOOOOO....++++++++    ",
"    ++++++++....OOOOOOOOOOOOOOOOOOOOOOOOOOOOOOOO....++++++++    ",
"    ++++++++....OOOOOOOOOOOOOOOOOOOOOOOOOOOOOOOO....++++++++    ",
"    ++++++++....OOOOOOOOOOOOOOOOOOOOOOOOOOOOOOOO....++++++++    ",
"    ++++++++....OOOOOOOOOOOOOOOOOOOOOOOOOOOOOOOO....++++++++    ",
"    ++++++++....OOOOOOOOOOOOOOOOOOOOOOOOOOOOOOOO....++++++++    ",
"    ++++++++....OOOOOOOOOOOOOOOOOOOOOOOOOOOOOOOO....++++++++    ",
"    ++++++++....OOOOOOOOOOOOOOOOOOOOOOOOOOOOOOOO....++++++++    ",
"    ++++++++........OOOOOOOOOOOOOOOOOOOOOOOO........++++++++    ",
"    ++++++++........OOOOOOOOOOOOOOOOOOOOOOOO........++++++++    ",
"    ++++++++........OOOOOOOOOOOOOOOOOOOOOOOO........++++++++    ",
"    ++++++++........OOOOOOOOOOOOOOOOOOOOOOOO........++++++++    ",
"oooo                                                        oooo",
"oooo                                                        oooo",
"oooo                                                        oooo",
"oooo                                                        oooo"
};
