/* XPM */
static char *Eback1703017166[] = {
/* columns rows colors chars-per-pixel */
"64 64 12 1 ",
"  c #040404",
". c #3F3013",
"X c #46000A",
"o c #770000",
"O c #214614",
"+ c #347322",
"@ c #5D4717",
"# c #586738",
"$ c #B60000",
"% c #5BA60B",
"& c #A7CB35",
"* c #E2E739",
/* pixels */
"################################################################",
"################################################################",
"################################################################",
"################################################################",
"####################                        ####################",
"####################                        ####################",
"####################                        ####################",
"####################                        ####################",
"################    ++++&&&&&&&&&&&&&&&&++++    ################",
"################    ++++&&&&&&&&&&&&&&&&++++    ################",
"################    ++++&&&&&&&&&&&&&&&&++++    ################",
"################    ++++&&&&&&&&&&&&&&&&++++    ################",
"############    OOOO&&&&****&&&&&&&&&&&&&&&&OOOO    ############",
"############    OOOO&&&&****&&&&&&&&&&&&&&&&OOOO    ############",
"############    OOOO&&&&****&&&&&&&&&&&&&&&&OOOO    ############",
"############    OOOO&&&&****&&&&&&&&&&&&&&&&OOOO    ############",
"####            OOOO%%%%&&&&&&&&&&&&&&&&%%%%OOOO            ####",
"####            OOOO%%%%&&&&&&&&&&&&&&&&%%%%OOOO            ####",
"####            OOOO%%%%&&&&&&&&&&&&&&&&%%%%OOOO            ####",
"####            OOOO%%%%&&&&&&&&&&&&&&&&%%%%OOOO            ####",
"####    %%%%%%%%%%%%%%%%%%%%%%%%%%%%%%%%%%%%%%%%%%%%%%%%    ####",
"####    %%%%%%%%%%%%%%%%%%%%%%%%%%%%%%%%%%%%%%%%%%%%%%%%    ####",
"####    %%%%%%%%%%%%%%%%%%%%%%%%%%%%%%%%%%%%%%%%%%%%%%%%    ####",
"####    %%%%%%%%%%%%%%%%%%%%%%%%%%%%%%%%%%%%%%%%%%%%%%%%    ####",
"########    ++++++++++++++++++++++++++++++++++++++++    ########",
"########    ++++++++++++++++++++++++++++++++++++++++    ########",
"########    ++++++++++++++++++++++++++++++++++++++++    ########",
"########    ++++++++++++++++++++++++++++++++++++++++    ########",
"############        ++++++++++++++++++++++++        ############",
"############        ++++++++++++++++++++++++        ############",
"############        ++++++++++++++++++++++++        ############",
"############        ++++++++++++++++++++++++        ############",
"############    $$$$OOOO++++++++++++++++OOOO$$$$    ############",
"############    $$$$OOOO++++++++++++++++OOOO$$$$    ############",
"############    $$$$OOOO++++++++++++++++OOOO$$$$    ############",
"############    $$$$OOOO++++++++++++++++OOOO$$$$    ############",
"########    $$$$$$$$$$$$$$$$$$$$$$$$$$$$$$$$$$$$$$$$    ########",
"########    $$$$$$$$$$$$$$$$$$$$$$$$$$$$$$$$$$$$$$$$    ########",
"########    $$$$$$$$$$$$$$$$$$$$$$$$$$$$$$$$$$$$$$$$    ########",
"########    $$$$$$$$$$$$$$$$$$$$$$$$$$$$$$$$$$$$$$$$    ########",
"####    %%%%%%%%    oooo$$$$$$$$$$$$$$$$oooo    %%%%%%%%    ####",
"####    %%%%%%%%    oooo$$$$$$$$$$$$$$$$oooo    %%%%%%%%    ####",
"####    %%%%%%%%    oooo$$$$$$$$$$$$$$$$oooo    %%%%%%%%    ####",
"####    %%%%%%%%    oooo$$$$$$$$$$$$$$$$oooo    %%%%%%%%    ####",
"####    %%%%++++    oooooooooooooooooooooooo    ++++%%%%    ####",
"####    %%%%++++    oooooooooooooooooooooooo    ++++%%%%    ####",
"####    %%%%++++    oooooooooooooooooooooooo    ++++%%%%    ####",
"####    %%%%++++    oooooooooooooooooooooooo    ++++%%%%    ####",
"########            XXXXooooooooooooooooXXXX            ########",
"########            XXXXooooooooooooooooXXXX            ########",
"########            XXXXooooooooooooooooXXXX            ########",
"########            XXXXooooooooooooooooXXXX            ########",
"################    ........        ........    ################",
"################    ........        ........    ################",
"################    ........        ........    ################",
"################    ........        ........    ################",
"################    @@@@@@@@        @@@@@@@@    ################",
"################    @@@@@@@@        @@@@@@@@    ################",
"################    @@@@@@@@        @@@@@@@@    ################",
"################    @@@@@@@@        @@@@@@@@    ################",
"################################################################",
"################################################################",
"################################################################",
"################################################################"
};
