/* XPM */
static char *Efront1703017165[] = {
/* columns rows colors chars-per-pixel */
"64 68 14 1 ",
"  c #040404",
". c #1C3012",
"X c #3F3013",
"o c #46000A",
"O c #770000",
"+ c #214614",
"@ c #347322",
"# c #5D4717",
"$ c #586738",
"% c #B60000",
"& c #5BA60B",
"* c #A7CB35",
"= c #E2E739",
"- c gray91",
/* pixels */
"$$$$$$$$$$$$$$$$$$$$$$$$$$$$$$$$$$$$$$$$$$$$$$$$$$$$$$$$$$$$$$$$",
"$$$$$$$$$$$$$$$$$$$$$$$$$$$$$$$$$$$$$$$$$$$$$$$$$$$$$$$$$$$$$$$$",
"$$$$$$$$$$$$$$$$$$$$$$$$$$$$$$$$$$$$$$$$$$$$$$$$$$$$$$$$$$$$$$$$",
"$$$$$$$$$$$$$$$$$$$$$$$$$$$$$$$$$$$$$$$$$$$$$$$$$$$$$$$$$$$$$$$$",
"$$$$$$$$$$$$$$$$$$$$                        $$$$$$$$$$$$$$$$$$$$",
"$$$$$$$$$$$$$$$$$$$$                        $$$$$$$$$$$$$$$$$$$$",
"$$$$$$$$$$$$$$$$$$$$                        $$$$$$$$$$$$$$$$$$$$",
"$$$$$$$$$$$$$$$$$$$$                        $$$$$$$$$$$$$$$$$$$$",
"$$$$$$$$$$$$$$$$    @@@@****************@@@@    $$$$$$$$$$$$$$$$",
"$$$$$$$$$$$$$$$$    @@@@****************@@@@    $$$$$$$$$$$$$$$$",
"$$$$$$$$$$$$$$$$    @@@@****************@@@@    $$$$$$$$$$$$$$$$",
"$$$$$$$$$$$$$$$$    @@@@****************@@@@    $$$$$$$$$$$$$$$$",
"$$$$$$$$$$$$    ++++****====****************++++    $$$$$$$$$$$$",
"$$$$$$$$$$$$    ++++****====****************++++    $$$$$$$$$$$$",
"$$$$$$$$$$$$    ++++****====****************++++    $$$$$$$$$$$$",
"$$$$$$$$$$$$    ++++****====****************++++    $$$$$$$$$$$$",
"$$$$            ++++&&&&****************&&&&++++            $$$$",
"$$$$            ++++&&&&****************&&&&++++            $$$$",
"$$$$            ++++&&&&****************&&&&++++            $$$$",
"$$$$            ++++&&&&****************&&&&++++            $$$$",
"$$$$    &&&&&&&&&&&&&&&&&&&&&&&&&&&&&&&&&&&&&&&&&&&&&&&&    $$$$",
"$$$$    &&&&&&&&&&&&&&&&&&&&&&&&&&&&&&&&&&&&&&&&&&&&&&&&    $$$$",
"$$$$    &&&&&&&&&&&&&&&&&&&&&&&&&&&&&&&&&&&&&&&&&&&&&&&&    $$$$",
"$$$$    &&&&&&&&&&&&&&&&&&&&&&&&&&&&&&&&&&&&&&&&&&&&&&&&    $$$$",
"$$$$$$$$    @@@@&&&&----    ********    ----&&&&@@@@    $$$$$$$$",
"$$$$$$$$    @@@@&&&&----    ********    ----&&&&@@@@    $$$$$$$$",
"$$$$$$$$    @@@@&&&&----    ********    ----&&&&@@@@    $$$$$$$$",
"$$$$$$$$    @@@@&&&&----    ********    ----&&&&@@@@    $$$$$$$$",
"$$$$$$$$$$$$        ----    ********    ----        $$$$$$$$$$$$",
"$$$$$$$$$$$$        ----    ********    ----        $$$$$$$$$$$$",
"$$$$$$$$$$$$        ----    ********    ----        $$$$$$$$$$$$",
"$$$$$$$$$$$$        ----    ********    ----        $$$$$$$$$$$$",
"$$$$$$$$$$$$    %%%%++++&&&&&&&&&&&&&&&&++++%%%%    $$$$$$$$$$$$",
"$$$$$$$$$$$$    %%%%++++&&&&&&&&&&&&&&&&++++%%%%    $$$$$$$$$$$$",
"$$$$$$$$$$$$    %%%%++++&&&&&&&&&&&&&&&&++++%%%%    $$$$$$$$$$$$",
"$$$$$$$$$$$$    %%%%++++&&&&&&&&&&&&&&&&++++%%%%    $$$$$$$$$$$$",
"$$$$$$$$    %%%%%%%%%%%%................%%%%%%%%%%%%    $$$$$$$$",
"$$$$$$$$    %%%%%%%%%%%%................%%%%%%%%%%%%    $$$$$$$$",
"$$$$$$$$    %%%%%%%%%%%%................%%%%%%%%%%%%    $$$$$$$$",
"$$$$$$$$    %%%%%%%%%%%%................%%%%%%%%%%%%    $$$$$$$$",
"$$$$    &&&&&&&&    OOOO%%%%%%%%%%%%%%%%OOOO    &&&&&&&&    $$$$",
"$$$$    &&&&&&&&    OOOO%%%%%%%%%%%%%%%%OOOO    &&&&&&&&    $$$$",
"$$$$    &&&&&&&&    OOOO%%%%%%%%%%%%%%%%OOOO    &&&&&&&&    $$$$",
"$$$$    &&&&&&&&    OOOO%%%%%%%%%%%%%%%%OOOO    &&&&&&&&    $$$$",
"$$$$    &&&&@@@@    OOOOOOOOOOOOOOOOOOOOOOOO    @@@@&&&&    $$$$",
"$$$$    &&&&@@@@    OOOOOOOOOOOOOOOOOOOOOOOO    @@@@&&&&    $$$$",
"$$$$    &&&&@@@@    OOOOOOOOOOOOOOOOOOOOOOOO    @@@@&&&&    $$$$",
"$$$$    &&&&@@@@    OOOOOOOOOOOOOOOOOOOOOOOO    @@@@&&&&    $$$$",
"$$$$$$$$            ooooOOOOOOOOOOOOOOOOoooo            $$$$$$$$",
"$$$$$$$$            ooooOOOOOOOOOOOOOOOOoooo            $$$$$$$$",
"$$$$$$$$            ooooOOOOOOOOOOOOOOOOoooo            $$$$$$$$",
"$$$$$$$$            ooooOOOOOOOOOOOOOOOOoooo            $$$$$$$$",
"$$$$$$$$$$$$$$$$    XXXXXXXX        XXXXXXXX    $$$$$$$$$$$$$$$$",
"$$$$$$$$$$$$$$$$    XXXXXXXX        XXXXXXXX    $$$$$$$$$$$$$$$$",
"$$$$$$$$$$$$$$$$    XXXXXXXX        XXXXXXXX    $$$$$$$$$$$$$$$$",
"$$$$$$$$$$$$$$$$    XXXXXXXX        XXXXXXXX    $$$$$$$$$$$$$$$$",
"$$$$$$$$$$$$$$$$    ########        ########    $$$$$$$$$$$$$$$$",
"$$$$$$$$$$$$$$$$    ########        ########    $$$$$$$$$$$$$$$$",
"$$$$$$$$$$$$$$$$    ########        ########    $$$$$$$$$$$$$$$$",
"$$$$$$$$$$$$$$$$    ########        ########    $$$$$$$$$$$$$$$$",
"$$$$$$$$$$$$$$$$$$$$$$$$$$$$$$$$$$$$$$$$$$$$$$$$$$$$$$$$$$$$$$$$",
"$$$$$$$$$$$$$$$$$$$$$$$$$$$$$$$$$$$$$$$$$$$$$$$$$$$$$$$$$$$$$$$$",
"$$$$$$$$$$$$$$$$$$$$$$$$$$$$$$$$$$$$$$$$$$$$$$$$$$$$$$$$$$$$$$$$",
"$$$$$$$$$$$$$$$$$$$$$$$$$$$$$$$$$$$$$$$$$$$$$$$$$$$$$$$$$$$$$$$$",
"$$$$$$$$$$$$$$$$$$$$$$$$$$$$$$$$$$$$$$$$$$$$$$$$$$$$$$$$$$$$$$$$",
"$$$$$$$$$$$$$$$$$$$$$$$$$$$$$$$$$$$$$$$$$$$$$$$$$$$$$$$$$$$$$$$$",
"$$$$$$$$$$$$$$$$$$$$$$$$$$$$$$$$$$$$$$$$$$$$$$$$$$$$$$$$$$$$$$$$",
"$$$$$$$$$$$$$$$$$$$$$$$$$$$$$$$$$$$$$$$$$$$$$$$$$$$$$$$$$$$$$$$$"
};
