/* XPM */
static char *Eright1703017166[] = {
/* columns rows colors chars-per-pixel */
"64 64 14 1 ",
"  c #040404",
". c #1C3012",
"X c #3F3013",
"o c #46000A",
"O c #770000",
"+ c #214614",
"@ c #347322",
"# c #5D4717",
"$ c #586738",
"% c #B60000",
"& c #5BA60B",
"* c #A7CB35",
"= c #E2E739",
"- c gray91",
/* pixels */
"$$$$$$$$$$$$$$$$$$$$$$$$$$$$$$$$$$$$$$$$$$$$$$$$$$$$$$$$$$$$$$$$",
"$$$$$$$$$$$$$$$$$$$$$$$$$$$$$$$$$$$$$$$$$$$$$$$$$$$$$$$$$$$$$$$$",
"$$$$$$$$$$$$$$$$$$$$$$$$$$$$$$$$$$$$$$$$$$$$$$$$$$$$$$$$$$$$$$$$",
"$$$$$$$$$$$$$$$$$$$$$$$$$$$$$$$$$$$$$$$$$$$$$$$$$$$$$$$$$$$$$$$$",
"$$$$$$$$$$$$$$$$$$$$                        $$$$$$$$$$$$$$$$$$$$",
"$$$$$$$$$$$$$$$$$$$$                        $$$$$$$$$$$$$$$$$$$$",
"$$$$$$$$$$$$$$$$$$$$                        $$$$$$$$$$$$$$$$$$$$",
"$$$$$$$$$$$$$$$$$$$$                        $$$$$$$$$$$$$$$$$$$$",
"$$$$$$$$$$$$$$$$    @@@@****************@@@@    $$$$$$$$$$$$$$$$",
"$$$$$$$$$$$$$$$$    @@@@****************@@@@    $$$$$$$$$$$$$$$$",
"$$$$$$$$$$$$$$$$    @@@@****************@@@@    $$$$$$$$$$$$$$$$",
"$$$$$$$$$$$$$$$$    @@@@****************@@@@    $$$$$$$$$$$$$$$$",
"$$$$$$$$$$$$    ++++****====****************++++    $$$$$$$$$$$$",
"$$$$$$$$$$$$    ++++****====****************++++    $$$$$$$$$$$$",
"$$$$$$$$$$$$    ++++****====****************++++    $$$$$$$$$$$$",
"$$$$$$$$$$$$    ++++****====****************++++    $$$$$$$$$$$$",
"$$$$$$$$$$$$                ************&&&&++++    $$$$$$$$$$$$",
"$$$$$$$$$$$$                ************&&&&++++    $$$$$$$$$$$$",
"$$$$$$$$$$$$                ************&&&&++++    $$$$$$$$$$$$",
"$$$$$$$$$$$$                ************&&&&++++    $$$$$$$$$$$$",
"$$$$$$$$$$$$        &&&&&&&&&&&&&&&&&&&&&&&&@@@@    $$$$$$$$$$$$",
"$$$$$$$$$$$$        &&&&&&&&&&&&&&&&&&&&&&&&@@@@    $$$$$$$$$$$$",
"$$$$$$$$$$$$        &&&&&&&&&&&&&&&&&&&&&&&&@@@@    $$$$$$$$$$$$",
"$$$$$$$$$$$$        &&&&&&&&&&&&&&&&&&&&&&&&@@@@    $$$$$$$$$$$$",
"$$$$$$$$$$$$    ++++    @@@@&&&&&&&&----    ****    $$$$$$$$$$$$",
"$$$$$$$$$$$$    ++++    @@@@&&&&&&&&----    ****    $$$$$$$$$$$$",
"$$$$$$$$$$$$    ++++    @@@@&&&&&&&&----    ****    $$$$$$$$$$$$",
"$$$$$$$$$$$$    ++++    @@@@&&&&&&&&----    ****    $$$$$$$$$$$$",
"$$$$$$$$$$$$$$$$    @@@@    &&&&&&&&----    ****    $$$$$$$$$$$$",
"$$$$$$$$$$$$$$$$    @@@@    &&&&&&&&----    ****    $$$$$$$$$$$$",
"$$$$$$$$$$$$$$$$    @@@@    &&&&&&&&----    ****    $$$$$$$$$$$$",
"$$$$$$$$$$$$$$$$    @@@@    &&&&&&&&----    ****    $$$$$$$$$$$$",
"$$$$$$$$$$$$$$$$    ++++++++@@@@@@@@&&&&&&&&++++    $$$$$$$$$$$$",
"$$$$$$$$$$$$$$$$    ++++++++@@@@@@@@&&&&&&&&++++    $$$$$$$$$$$$",
"$$$$$$$$$$$$$$$$    ++++++++@@@@@@@@&&&&&&&&++++    $$$$$$$$$$$$",
"$$$$$$$$$$$$$$$$    ++++++++@@@@@@@@&&&&&&&&++++    $$$$$$$$$$$$",
"$$$$$$$$$$$$$$$$$$$$    OOOO%%%%%%%%........    $$$$$$$$$$$$$$$$",
"$$$$$$$$$$$$$$$$$$$$    OOOO%%%%%%%%........    $$$$$$$$$$$$$$$$",
"$$$$$$$$$$$$$$$$$$$$    OOOO%%%%%%%%........    $$$$$$$$$$$$$$$$",
"$$$$$$$$$$$$$$$$$$$$    OOOO%%%%%%%%........    $$$$$$$$$$$$$$$$",
"$$$$$$$$$$$$$$$$$$$$    OOOO%%%%%%%%OOOOOOOO    $$$$$$$$$$$$$$$$",
"$$$$$$$$$$$$$$$$$$$$    OOOO%%%%%%%%OOOOOOOO    $$$$$$$$$$$$$$$$",
"$$$$$$$$$$$$$$$$$$$$    OOOO%%%%%%%%OOOOOOOO    $$$$$$$$$$$$$$$$",
"$$$$$$$$$$$$$$$$$$$$    OOOO%%%%%%%%OOOOOOOO    $$$$$$$$$$$$$$$$",
"$$$$$$$$$$$$$$$$$$$$        &&&&&&&&    OOOO    $$$$$$$$$$$$$$$$",
"$$$$$$$$$$$$$$$$$$$$        &&&&&&&&    OOOO    $$$$$$$$$$$$$$$$",
"$$$$$$$$$$$$$$$$$$$$        &&&&&&&&    OOOO    $$$$$$$$$$$$$$$$",
"$$$$$$$$$$$$$$$$$$$$        &&&&&&&&    OOOO    $$$$$$$$$$$$$$$$",
"$$$$$$$$$$$$$$$$$$$$        &&&&@@@@    oooo    $$$$$$$$$$$$$$$$",
"$$$$$$$$$$$$$$$$$$$$        &&&&@@@@    oooo    $$$$$$$$$$$$$$$$",
"$$$$$$$$$$$$$$$$$$$$        &&&&@@@@    oooo    $$$$$$$$$$$$$$$$",
"$$$$$$$$$$$$$$$$$$$$        &&&&@@@@    oooo    $$$$$$$$$$$$$$$$",
"$$$$$$$$$$$$$$$$$$$$$$$$            XXXX    $$$$$$$$$$$$$$$$$$$$",
"$$$$$$$$$$$$$$$$$$$$$$$$            XXXX    $$$$$$$$$$$$$$$$$$$$",
"$$$$$$$$$$$$$$$$$$$$$$$$            XXXX    $$$$$$$$$$$$$$$$$$$$",
"$$$$$$$$$$$$$$$$$$$$$$$$            XXXX    $$$$$$$$$$$$$$$$$$$$",
"$$$$$$$$$$$$$$$$$$$$$$$$    ############    $$$$$$$$$$$$$$$$$$$$",
"$$$$$$$$$$$$$$$$$$$$$$$$    ############    $$$$$$$$$$$$$$$$$$$$",
"$$$$$$$$$$$$$$$$$$$$$$$$    ############    $$$$$$$$$$$$$$$$$$$$",
"$$$$$$$$$$$$$$$$$$$$$$$$    ############    $$$$$$$$$$$$$$$$$$$$",
"$$$$$$$$$$$$$$$$$$$$$$$$$$$$$$$$$$$$$$$$$$$$$$$$$$$$$$$$$$$$$$$$",
"$$$$$$$$$$$$$$$$$$$$$$$$$$$$$$$$$$$$$$$$$$$$$$$$$$$$$$$$$$$$$$$$",
"$$$$$$$$$$$$$$$$$$$$$$$$$$$$$$$$$$$$$$$$$$$$$$$$$$$$$$$$$$$$$$$$",
"$$$$$$$$$$$$$$$$$$$$$$$$$$$$$$$$$$$$$$$$$$$$$$$$$$$$$$$$$$$$$$$$"
};
