/* XPM */
static char *Gfront11703105515[] = {
/* columns rows colors chars-per-pixel */
"64 64 17 1 ",
"  c #040404",
". c #1C3012",
"X c #3F3013",
"o c #2B2F32",
"O c #46000A",
"+ c #770000",
"@ c #214614",
"# c #347322",
"$ c #5D4717",
"% c #586738",
"& c #B60000",
"* c #5BA60B",
"= c #C99236",
"- c #A7CB35",
"; c #E2E739",
": c #DADADA",
"> c gray91",
/* pixels */
"%%%%%%%%%%%%%%%%%%%%%%%%%%%%%%%%%%%%%%%%%%%%%%%%%%%%%%%%%%%%%%%%",
"%%%%%%%%%%%%%%%%%%%%%%%%%%%%%%%%%%%%%%%%%%%%%%%%%%%%%%%%%%%%%%%%",
"%%%%%%%%%%%%%%%%%%%%%%%%%%%%%%%%%%%%%%%%%%%%%%%%%%%%%%%%%%%%%%%%",
"%%%%%%%%%%%%%%%%%%%%%%%%%%%%%%%%%%%%%%%%%%%%%%%%%%%%%%%%%%%%%%%%",
"%%%%%%%%%%%%%%%%%%%%                        %%%%%%%%%%%%%%%%%%%%",
"%%%%%%%%%%%%%%%%%%%%                        %%%%%%%%%%%%%%%%%%%%",
"%%%%%%%%%%%%%%%%%%%%                        %%%%%%%%%%%%%%%%%%%%",
"%%%%%%%%%%%%%%%%%%%%                        %%%%%%%%%%%%%%%%%%%%",
"%%%%%%%%oooo%%%%    ####----------------####    %%%%%%%%%%%%%%%%",
"%%%%%%%%oooo%%%%    ####----------------####    %%%%%%%%%%%%%%%%",
"%%%%%%%%oooo%%%%    ####----------------####    %%%%%%%%%%%%%%%%",
"%%%%%%%%oooo%%%%    ####----------------####    %%%%%%%%%%%%%%%%",
"%%%%oooo::::oooo@@@@----;;;;----------------@@@@    %%%%%%%%%%%%",
"%%%%oooo::::oooo@@@@----;;;;----------------@@@@    %%%%%%%%%%%%",
"%%%%oooo::::oooo@@@@----;;;;----------------@@@@    %%%%%%%%%%%%",
"%%%%oooo::::oooo@@@@----;;;;----------------@@@@    %%%%%%%%%%%%",
"%%%%oooo::::oooo@@@@****----------------****@@@@            %%%%",
"%%%%oooo::::oooo@@@@****----------------****@@@@            %%%%",
"%%%%oooo::::oooo@@@@****----------------****@@@@            %%%%",
"%%%%oooo::::oooo@@@@****----------------****@@@@            %%%%",
"%%%%oooo::::oooo****************************************    %%%%",
"%%%%oooo::::oooo****************************************    %%%%",
"%%%%oooo::::oooo****************************************    %%%%",
"%%%%oooo::::oooo****************************************    %%%%",
"%%%%oooo::::oooo****>>>>    --------    >>>>****####    %%%%%%%%",
"%%%%oooo::::oooo****>>>>    --------    >>>>****####    %%%%%%%%",
"%%%%oooo::::oooo****>>>>    --------    >>>>****####    %%%%%%%%",
"%%%%oooo::::oooo****>>>>    --------    >>>>****####    %%%%%%%%",
"    ============    >>>>    --------    >>>>        %%%%%%%%%%%%",
"    ============    >>>>    --------    >>>>        %%%%%%%%%%%%",
"    ============    >>>>    --------    >>>>        %%%%%%%%%%%%",
"    ============    >>>>    --------    >>>>        %%%%%%%%%%%%",
"%%%%    ********&&&&@@@@****************@@@@&&&&    %%%%%%%%%%%%",
"%%%%    ********&&&&@@@@****************@@@@&&&&    %%%%%%%%%%%%",
"%%%%    ********&&&&@@@@****************@@@@&&&&    %%%%%%%%%%%%",
"%%%%    ********&&&&@@@@****************@@@@&&&&    %%%%%%%%%%%%",
"%%%%    ****####&&&&&&&&................&&&&&&&&&&&&    %%%%%%%%",
"%%%%    ****####&&&&&&&&................&&&&&&&&&&&&    %%%%%%%%",
"%%%%    ****####&&&&&&&&................&&&&&&&&&&&&    %%%%%%%%",
"%%%%    ****####&&&&&&&&................&&&&&&&&&&&&    %%%%%%%%",
"%%%%%%%%            ++++&&&&&&&&&&&&&&&&    ********    %%%%%%%%",
"%%%%%%%%            ++++&&&&&&&&&&&&&&&&    ********    %%%%%%%%",
"%%%%%%%%            ++++&&&&&&&&&&&&&&&&    ********    %%%%%%%%",
"%%%%%%%%            ++++&&&&&&&&&&&&&&&&    ********    %%%%%%%%",
"%%%%%%%%%%%%%%%%    ++++++++++++++++++++    ####****    %%%%%%%%",
"%%%%%%%%%%%%%%%%    ++++++++++++++++++++    ####****    %%%%%%%%",
"%%%%%%%%%%%%%%%%    ++++++++++++++++++++    ####****    %%%%%%%%",
"%%%%%%%%%%%%%%%%    ++++++++++++++++++++    ####****    %%%%%%%%",
"%%%%%%%%%%%%%%%%    OOOO++++++++++++++++OOOO        %%%%%%%%%%%%",
"%%%%%%%%%%%%%%%%    OOOO++++++++++++++++OOOO        %%%%%%%%%%%%",
"%%%%%%%%%%%%%%%%    OOOO++++++++++++++++OOOO        %%%%%%%%%%%%",
"%%%%%%%%%%%%%%%%    OOOO++++++++++++++++OOOO        %%%%%%%%%%%%",
"%%%%%%%%%%%%%%%%    XXXXXXXX        XXXXXXXX    %%%%%%%%%%%%%%%%",
"%%%%%%%%%%%%%%%%    XXXXXXXX        XXXXXXXX    %%%%%%%%%%%%%%%%",
"%%%%%%%%%%%%%%%%    XXXXXXXX        XXXXXXXX    %%%%%%%%%%%%%%%%",
"%%%%%%%%%%%%%%%%    XXXXXXXX        XXXXXXXX    %%%%%%%%%%%%%%%%",
"%%%%%%%%%%%%%%%%%%%%%%%%%%%%%%%%    $$$$$$$$    %%%%%%%%%%%%%%%%",
"%%%%%%%%%%%%%%%%%%%%%%%%%%%%%%%%    $$$$$$$$    %%%%%%%%%%%%%%%%",
"%%%%%%%%%%%%%%%%%%%%%%%%%%%%%%%%    $$$$$$$$    %%%%%%%%%%%%%%%%",
"%%%%%%%%%%%%%%%%%%%%%%%%%%%%%%%%    $$$$$$$$    %%%%%%%%%%%%%%%%",
"%%%%%%%%%%%%%%%%%%%%%%%%%%%%%%%%%%%%%%%%%%%%%%%%%%%%%%%%%%%%%%%%",
"%%%%%%%%%%%%%%%%%%%%%%%%%%%%%%%%%%%%%%%%%%%%%%%%%%%%%%%%%%%%%%%%",
"%%%%%%%%%%%%%%%%%%%%%%%%%%%%%%%%%%%%%%%%%%%%%%%%%%%%%%%%%%%%%%%%",
"%%%%%%%%%%%%%%%%%%%%%%%%%%%%%%%%%%%%%%%%%%%%%%%%%%%%%%%%%%%%%%%%"
};
