/* XPM */
static char *Gfront21703105516[] = {
/* columns rows colors chars-per-pixel */
"64 64 15 1 ",
"  c None",
". c #040404",
"X c #2B2F32",
"o c #46000A",
"O c #770000",
"+ c #214614",
"@ c #347322",
"# c #586738",
"$ c #B60000",
"% c #5BA60B",
"& c #C99236",
"* c #A7CB35",
"= c #E2E739",
"- c gray89",
"; c gray91",
/* pixels */
"################################################################",
"################################################################",
"################################################################",
"################################################################",
"################################################################",
"################################################################",
"################################################################",
"################################################################",
"####################........................####################",
"####################........................####################",
"####################........................####################",
"####################........................####################",
"################....@@@@****************@@@@....################",
"################....@@@@****************@@@@....################",
"################....@@@@****************@@@@....################",
"################....@@@@****************@@@@....################",
"############....++++****====****************++++....############",
"############....++++****====****************++++....############",
"############....++++****====****************++++....############",
"############....++++****====****************++++....############",
"####....----....++++%%%%****************%%%%++++............####",
"####....----....++++%%%%****************%%%%++++............####",
"####....----....++++%%%%****************%%%%++++............####",
"####....----....++++%%%%****************%%%%++++............####",
"####....----%%%%%%%%%%%%%%%%%%%%%%%%%%%%%%%%%%%%%%%%%%%%....####",
"####....----%%%%%%%%%%%%%%%%%%%%%%%%%%%%%%%%%%%%%%%%%%%%....####",
"####....----%%%%%%%%%%%%%%%%%%%%%%%%%%%%%%%%%%%%%%%%%%%%....####",
"####....----%%%%%%%%%%%%%%%%%%%%%%%%%%%%%%%%%%%%%%%%%%%%....####",
"####--------@@@@%%%%;;;;....********....;;;;%%%%@@@@....########",
"####--------@@@@%%%%;;;;....********....;;;;%%%%@@@@....########",
"####--------@@@@%%%%;;;;....********....;;;;%%%%@@@@....########",
"####--------@@@@%%%%;;;;....********....;;;;%%%%@@@@....########",
"####--------........;;;;....********....;;;;....OOOO@@@@....####",
"####--------........;;;;....********....;;;;....OOOO@@@@....####",
"####--------........;;;;....********....;;;;....OOOO@@@@....####",
"####--------........;;;;....********....;;;;....OOOO@@@@....####",
"####--------    ....++++%%%%%%%%%%%%%%%%++++oooooooo++++....####",
"####--------    ....++++%%%%%%%%%%%%%%%%++++oooooooo++++....####",
"####--------    ....++++%%%%%%%%%%%%%%%%++++oooooooo++++....####",
"####--------    ....++++%%%%%%%%%%%%%%%%++++oooooooo++++....####",
"####------------....$$$$oooo&&&&XXXXXXXXoooo............########",
"####------------....$$$$oooo&&&&XXXXXXXXoooo............########",
"####------------....$$$$oooo&&&&XXXXXXXXoooo............########",
"####------------....$$$$oooo&&&&XXXXXXXXoooo............########",
"####----------------OOOO$$$$&&&&--------XXXX....################",
"####----------------OOOO$$$$&&&&--------XXXX....################",
"####----------------OOOO$$$$&&&&--------XXXX....################",
"####----------------OOOO$$$$&&&&--------XXXX....################",
"####--------------------------------------------XXXX############",
"####--------------------------------------------XXXX############",
"####--------------------------------------------XXXX############",
"####--------------------------------------------XXXX############",
"########----------------------------------------XXXX############",
"########----------------------------------------XXXX############",
"########----------------------------------------XXXX############",
"########----------------------------------------XXXX############",
"############--------------------------------XXXX################",
"############--------------------------------XXXX################",
"############--------------------------------XXXX################",
"############--------------------------------XXXX################",
"################------------------------########################",
"################------------------------########################",
"################------------------------########################",
"################------------------------########################"
};
