/* XPM */
static char *_66adb6fcdc64aafe362eee54febfbfcnQwfZn6D4PNiviVP[] = {
/* columns rows colors chars-per-pixel */
"32 32 12 1 ",
"  c gray9",
". c #2E2415",
"X c #213F2F",
"o c #4F3712",
"O c #3E472B",
"+ c #346B3D",
"@ c #644F1B",
"# c #586738",
"$ c #7B642E",
"% c #598C46",
"& c #77A947",
"* c #93C147",
/* pixels */
"##############    ##############",
"##############    ##############",
"############  ****  ############",
"############  ****  ############",
"##########  %%****%%  ##########",
"##########  %%****%%  ##########",
"##########  &&&&&&&&  ##########",
"##########  &&&&&&&&  ##########",
"########  ++%%&&&&%%++  ########",
"########  ++%%&&&&%%++  ########",
"######  XX%%%%%%%%%%%%XX  ######",
"######  XX%%%%%%%%%%%%XX  ######",
"######  ++++%%%%%%%%++++  ######",
"######  ++++%%%%%%%%++++  ######",
"######  ++++++++++++++++  ######",
"######  ++++++++++++++++  ######",
"######  XX++++++++++++XX  ######",
"######  XX++++++++++++XX  ######",
"######  XXXXXXXXXXXXXXXX  ######",
"######  XXXXXXXXXXXXXXXX  ######",
"######OO  XXXXXXXXXXXX  OO######",
"######OO  XXXXXXXXXXXX  OO######",
"####OOOOOO  ..oooo..  OOOOOO####",
"####OOOOOO  ..oooo..  OOOOOO####",
"####OOOOOO..oo@@@@oo..OOOOOO####",
"####OOOOOO..oo@@@@oo..OOOOOO####",
"####OOOOOOOO..$$$$..OOOOOOOO####",
"####OOOOOOOO..$$$$..OOOOOOOO####",
"####OOOOOOOOOOOOOOOOOOOOOOOO####",
"####OOOOOOOOOOOOOOOOOOOOOOOO####",
"######OOOOOOOOOOOOOOOOOOOO######",
"######OOOOOOOOOOOOOOOOOOOO######"
};
