/* XPM */
static char *Oexit1702940913[] = {
/* columns rows colors chars-per-pixel */
"64 64 7 1 ",
"  c #25131A",
". c #586738",
"X c #523B40",
"o c #895A45",
"O c #BF704D",
"+ c #90919E",
"@ c #ADC1CF",
/* pixels */
"............OOOOOOOO........................OOOOOOOO............",
"............OOOOOOOO........................OOOOOOOO............",
"............OOOOOOOO........................OOOOOOOO............",
"............OOOOOOOO........................OOOOOOOO............",
"............oooooooo........................oooooooo............",
"............oooooooo........................oooooooo............",
"............oooooooo........................oooooooo............",
"............oooooooo........................oooooooo............",
"............oooooooo........................oooooooo............",
"............oooooooo........................oooooooo............",
"............oooooooo........................oooooooo............",
"............oooooooo........................oooooooo............",
"        OOOO++++@@@@OOOOOOOOOOOOOOOOOOOOOOOO@@@@++++OOOO        ",
"        OOOO++++@@@@OOOOOOOOOOOOOOOOOOOOOOOO@@@@++++OOOO        ",
"        OOOO++++@@@@OOOOOOOOOOOOOOOOOOOOOOOO@@@@++++OOOO        ",
"        OOOO++++@@@@OOOOOOOOOOOOOOOOOOOOOOOO@@@@++++OOOO        ",
"        oooooooooooooooooooooooooooooooooooooooooooooooo        ",
"        oooooooooooooooooooooooooooooooooooooooooooooooo        ",
"        oooooooooooooooooooooooooooooooooooooooooooooooo        ",
"        oooooooooooooooooooooooooooooooooooooooooooooooo        ",
"            XXXXXXXX                        XXXXXXXX            ",
"            XXXXXXXX                        XXXXXXXX            ",
"            XXXXXXXX                        XXXXXXXX            ",
"            XXXXXXXX                        XXXXXXXX            ",
"            oooooooo                        oooooooo            ",
"            oooooooo                        oooooooo            ",
"            oooooooo                        oooooooo            ",
"            oooooooo                        oooooooo            ",
"            oooooooo                        oooooooo            ",
"            oooooooo                        oooooooo            ",
"            oooooooo                        oooooooo            ",
"            oooooooo                        oooooooo            ",
"            oooooooo                        oooooooo            ",
"            oooooooo                        oooooooo            ",
"            oooooooo                        oooooooo            ",
"            oooooooo                        oooooooo            ",
"            oooooooo                        oooooooo            ",
"            oooooooo                        oooooooo            ",
"            oooooooo                        oooooooo            ",
"            oooooooo                        oooooooo            ",
"            oooooooo                        oooooooo            ",
"            oooooooo                        oooooooo            ",
"            oooooooo                        oooooooo            ",
"            oooooooo                        oooooooo            ",
"        OOOO++++@@@@OOOOOOOOOOOOOOOOOOOOOOOO@@@@++++OOOO        ",
"        OOOO++++@@@@OOOOOOOOOOOOOOOOOOOOOOOO@@@@++++OOOO        ",
"        OOOO++++@@@@OOOOOOOOOOOOOOOOOOOOOOOO@@@@++++OOOO        ",
"        OOOO++++@@@@OOOOOOOOOOOOOOOOOOOOOOOO@@@@++++OOOO        ",
"        oooooooooooooooooooooooooooooooooooooooooooooooo        ",
"        oooooooooooooooooooooooooooooooooooooooooooooooo        ",
"        oooooooooooooooooooooooooooooooooooooooooooooooo        ",
"        oooooooooooooooooooooooooooooooooooooooooooooooo        ",
"            XXXXXXXX                        XXXXXXXX            ",
"            XXXXXXXX                        XXXXXXXX            ",
"            XXXXXXXX                        XXXXXXXX            ",
"            XXXXXXXX                        XXXXXXXX            ",
"            oooooooo                        oooooooo            ",
"            oooooooo                        oooooooo            ",
"            oooooooo                        oooooooo            ",
"            oooooooo                        oooooooo            ",
"            oooooooo                        oooooooo            ",
"            oooooooo                        oooooooo            ",
"            oooooooo                        oooooooo            ",
"            oooooooo                        oooooooo            "
};
