/* XPM */
static char *Pback1702940913[] = {
/* columns rows colors chars-per-pixel */
"64 64 14 1 ",
"  c #040404",
". c #201710",
"X c #2F1E16",
"o c #3F3013",
"O c #46000A",
"+ c #770000",
"@ c #51301E",
"# c #5D4717",
"$ c #754227",
"% c #586738",
"& c #B60000",
"* c #8C4D2B",
"= c #D97F40",
"- c #F6A954",
/* pixels */
"%%%%%%%%%%%%%%%%%%%%%%%%%%%%%%%%%%%%%%%%%%%%%%%%%%%%%%%%%%%%%%%%",
"%%%%%%%%%%%%%%%%%%%%%%%%%%%%%%%%%%%%%%%%%%%%%%%%%%%%%%%%%%%%%%%%",
"%%%%%%%%%%%%%%%%%%%%%%%%%%%%%%%%%%%%%%%%%%%%%%%%%%%%%%%%%%%%%%%%",
"%%%%%%%%%%%%%%%%%%%%%%%%%%%%%%%%%%%%%%%%%%%%%%%%%%%%%%%%%%%%%%%%",
"%%%%%%%%%%%%%%%%%%%%                        %%%%%%%%%%%%%%%%%%%%",
"%%%%%%%%%%%%%%%%%%%%                        %%%%%%%%%%%%%%%%%%%%",
"%%%%%%%%%%%%%%%%%%%%                        %%%%%%%%%%%%%%%%%%%%",
"%%%%%%%%%%%%%%%%%%%%                        %%%%%%%%%%%%%%%%%%%%",
"%%%%%%%%%%%%%%%%    @@@@$$$$********$$$$@@@@    %%%%%%%%%%%%%%%%",
"%%%%%%%%%%%%%%%%    @@@@$$$$********$$$$@@@@    %%%%%%%%%%%%%%%%",
"%%%%%%%%%%%%%%%%    @@@@$$$$********$$$$@@@@    %%%%%%%%%%%%%%%%",
"%%%%%%%%%%%%%%%%    @@@@$$$$********$$$$@@@@    %%%%%%%%%%%%%%%%",
"%%%%%%%%%%%%    XXXX@@@@@@@@$$$$$$$$@@@@@@@@XXXX    %%%%%%%%%%%%",
"%%%%%%%%%%%%    XXXX@@@@@@@@$$$$$$$$@@@@@@@@XXXX    %%%%%%%%%%%%",
"%%%%%%%%%%%%    XXXX@@@@@@@@$$$$$$$$@@@@@@@@XXXX    %%%%%%%%%%%%",
"%%%%%%%%%%%%    XXXX@@@@@@@@$$$$$$$$@@@@@@@@XXXX    %%%%%%%%%%%%",
"%%%%%%%%%%%%    XXXXXXXX@@@@@@@@@@@@@@@@XXXXXXXX    %%%%%%%%%%%%",
"%%%%%%%%%%%%    XXXXXXXX@@@@@@@@@@@@@@@@XXXXXXXX    %%%%%%%%%%%%",
"%%%%%%%%%%%%    XXXXXXXX@@@@@@@@@@@@@@@@XXXXXXXX    %%%%%%%%%%%%",
"%%%%%%%%%%%%    XXXXXXXX@@@@@@@@@@@@@@@@XXXXXXXX    %%%%%%%%%%%%",
"%%%%%%%%%%%%    XXXXXXXXXXXXXXXXXXXXXXXXXXXXXXXX    %%%%%%%%%%%%",
"%%%%%%%%%%%%    XXXXXXXXXXXXXXXXXXXXXXXXXXXXXXXX    %%%%%%%%%%%%",
"%%%%%%%%%%%%    XXXXXXXXXXXXXXXXXXXXXXXXXXXXXXXX    %%%%%%%%%%%%",
"%%%%%%%%%%%%    XXXXXXXXXXXXXXXXXXXXXXXXXXXXXXXX    %%%%%%%%%%%%",
"%%%%%%%%%%%%    ....XXXXXXXXXXXXXXXXXXXXXXXX....    %%%%%%%%%%%%",
"%%%%%%%%%%%%    ....XXXXXXXXXXXXXXXXXXXXXXXX....    %%%%%%%%%%%%",
"%%%%%%%%%%%%    ....XXXXXXXXXXXXXXXXXXXXXXXX....    %%%%%%%%%%%%",
"%%%%%%%%%%%%    ....XXXXXXXXXXXXXXXXXXXXXXXX....    %%%%%%%%%%%%",
"%%%%%%%%%%%%    ........XXXX....XXXXXXXX........    %%%%%%%%%%%%",
"%%%%%%%%%%%%    ........XXXX....XXXXXXXX........    %%%%%%%%%%%%",
"%%%%%%%%%%%%    ........XXXX....XXXXXXXX........    %%%%%%%%%%%%",
"%%%%%%%%%%%%    ........XXXX....XXXXXXXX........    %%%%%%%%%%%%",
"%%%%%%%%%%%%%%%%    ........................    %%%%%%%%%%%%%%%%",
"%%%%%%%%%%%%%%%%    ........................    %%%%%%%%%%%%%%%%",
"%%%%%%%%%%%%%%%%    ........................    %%%%%%%%%%%%%%%%",
"%%%%%%%%%%%%%%%%    ........................    %%%%%%%%%%%%%%%%",
"%%%%%%%%%%%%    &&&&........................&&&&    %%%%%%%%%%%%",
"%%%%%%%%%%%%    &&&&........................&&&&    %%%%%%%%%%%%",
"%%%%%%%%%%%%    &&&&........................&&&&    %%%%%%%%%%%%",
"%%%%%%%%%%%%    &&&&........................&&&&    %%%%%%%%%%%%",
"%%%%%%%%    &&&&&&&&&&&&&&&&&&&&&&&&&&&&&&&&&&&&&&&&    %%%%%%%%",
"%%%%%%%%    &&&&&&&&&&&&&&&&&&&&&&&&&&&&&&&&&&&&&&&&    %%%%%%%%",
"%%%%%%%%    &&&&&&&&&&&&&&&&&&&&&&&&&&&&&&&&&&&&&&&&    %%%%%%%%",
"%%%%%%%%    &&&&&&&&&&&&&&&&&&&&&&&&&&&&&&&&&&&&&&&&    %%%%%%%%",
"%%%%    --------    ++++&&&&&&&&&&&&&&&&++++    --------    %%%%",
"%%%%    --------    ++++&&&&&&&&&&&&&&&&++++    --------    %%%%",
"%%%%    --------    ++++&&&&&&&&&&&&&&&&++++    --------    %%%%",
"%%%%    --------    ++++&&&&&&&&&&&&&&&&++++    --------    %%%%",
"%%%%    ----====    ++++++++++++++++++++++++    ====----    %%%%",
"%%%%    ----====    ++++++++++++++++++++++++    ====----    %%%%",
"%%%%    ----====    ++++++++++++++++++++++++    ====----    %%%%",
"%%%%    ----====    ++++++++++++++++++++++++    ====----    %%%%",
"%%%%%%%%            OOOO++++++++++++++++OOOO            %%%%%%%%",
"%%%%%%%%            OOOO++++++++++++++++OOOO            %%%%%%%%",
"%%%%%%%%            OOOO++++++++++++++++OOOO            %%%%%%%%",
"%%%%%%%%            OOOO++++++++++++++++OOOO            %%%%%%%%",
"%%%%%%%%%%%%%%%%    oooooooo        oooooooo    %%%%%%%%%%%%%%%%",
"%%%%%%%%%%%%%%%%    oooooooo        oooooooo    %%%%%%%%%%%%%%%%",
"%%%%%%%%%%%%%%%%    oooooooo        oooooooo    %%%%%%%%%%%%%%%%",
"%%%%%%%%%%%%%%%%    oooooooo        oooooooo    %%%%%%%%%%%%%%%%",
"%%%%%%%%%%%%%%%%    ########        ########    %%%%%%%%%%%%%%%%",
"%%%%%%%%%%%%%%%%    ########        ########    %%%%%%%%%%%%%%%%",
"%%%%%%%%%%%%%%%%    ########        ########    %%%%%%%%%%%%%%%%",
"%%%%%%%%%%%%%%%%    ########        ########    %%%%%%%%%%%%%%%%"
};
