/* XPM */
static char *Pleftmv1702940914[] = {
/* columns rows colors chars-per-pixel */
"64 64 17 1 ",
"  c #040404",
". c #2F1E16",
"X c #3F3013",
"o c #46000A",
"O c #770000",
"+ c #51301E",
"@ c #5D4717",
"# c #754227",
"$ c #586738",
"% c #B60000",
"& c #84482A",
"* c #8C4D2B",
"= c #AA5A33",
"- c #D97F40",
"; c #F6A954",
": c #F7D099",
"> c gray91",
/* pixels */
"$$$$$$$$$$$$$$$$$$$$$$$$$$$$$$$$$$$$$$$$$$$$$$$$$$$$$$$$$$$$$$$$",
"$$$$$$$$$$$$$$$$$$$$$$$$$$$$$$$$$$$$$$$$$$$$$$$$$$$$$$$$$$$$$$$$",
"$$$$$$$$$$$$$$$$$$$$$$$$$$$$$$$$$$$$$$$$$$$$$$$$$$$$$$$$$$$$$$$$",
"$$$$$$$$$$$$$$$$$$$$$$$$$$$$$$$$$$$$$$$$$$$$$$$$$$$$$$$$$$$$$$$$",
"$$$$$$$$$$$$$$$$$$$$                        $$$$$$$$$$$$$$$$$$$$",
"$$$$$$$$$$$$$$$$$$$$                        $$$$$$$$$$$$$$$$$$$$",
"$$$$$$$$$$$$$$$$$$$$                        $$$$$$$$$$$$$$$$$$$$",
"$$$$$$$$$$$$$$$$$$$$                        $$$$$$$$$$$$$$$$$$$$",
"$$$$$$$$$$$$$$$$    ++++####********####++++    $$$$$$$$$$$$$$$$",
"$$$$$$$$$$$$$$$$    ++++####********####++++    $$$$$$$$$$$$$$$$",
"$$$$$$$$$$$$$$$$    ++++####********####++++    $$$$$$$$$$$$$$$$",
"$$$$$$$$$$$$$$$$    ++++####********####++++    $$$$$$$$$$$$$$$$",
"$$$$$$$$$$$$    ....++++++++########++++++++....    $$$$$$$$$$$$",
"$$$$$$$$$$$$    ....++++++++########++++++++....    $$$$$$$$$$$$",
"$$$$$$$$$$$$    ....++++++++########++++++++....    $$$$$$$$$$$$",
"$$$$$$$$$$$$    ....++++++++########++++++++....    $$$$$$$$$$$$",
"$$$$$$$$$$$$    ........++++++++++++++++........    $$$$$$$$$$$$",
"$$$$$$$$$$$$    ........++++++++++++++++........    $$$$$$$$$$$$",
"$$$$$$$$$$$$    ........++++++++++++++++........    $$$$$$$$$$$$",
"$$$$$$$$$$$$    ........++++++++++++++++........    $$$$$$$$$$$$",
"$$$$$$$$$$$$    ====;;;;........................    $$$$$$$$$$$$",
"$$$$$$$$$$$$    ====;;;;........................    $$$$$$$$$$$$",
"$$$$$$$$$$$$    ====;;;;........................    $$$$$$$$$$$$",
"$$$$$$$$$$$$    ====;;;;........................    $$$$$$$$$$$$",
"$$$$$$$$$$$$    ----;;;;;;;;....................    $$$$$$$$$$$$",
"$$$$$$$$$$$$    ----;;;;;;;;....................    $$$$$$$$$$$$",
"$$$$$$$$$$$$    ----;;;;;;;;....................    $$$$$$$$$$$$",
"$$$$$$$$$$$$    ----;;;;;;;;....................    $$$$$$$$$$$$",
"$$$$$$$$$$$$    ::::    >>>>;;;;....;;;;----....    $$$$$$$$$$$$",
"$$$$$$$$$$$$    ::::    >>>>;;;;....;;;;----....    $$$$$$$$$$$$",
"$$$$$$$$$$$$    ::::    >>>>;;;;....;;;;----....    $$$$$$$$$$$$",
"$$$$$$$$$$$$    ::::    >>>>;;;;....;;;;----....    $$$$$$$$$$$$",
"$$$$$$$$$$$$    ::::    >>>>;;;;;;;;--------    $$$$$$$$$$$$$$$$",
"$$$$$$$$$$$$    ::::    >>>>;;;;;;;;--------    $$$$$$$$$$$$$$$$",
"$$$$$$$$$$$$    ::::    >>>>;;;;;;;;--------    $$$$$$$$$$$$$$$$",
"$$$$$$$$$$$$    ::::    >>>>;;;;;;;;--------    $$$$$$$$$$$$$$$$",
"$$$$$$$$$$$$    ====;;;;;;;;--------........    $$$$$$$$$$$$$$$$",
"$$$$$$$$$$$$    ====;;;;;;;;--------........    $$$$$$$$$$$$$$$$",
"$$$$$$$$$$$$    ====;;;;;;;;--------........    $$$$$$$$$$$$$$$$",
"$$$$$$$$$$$$    ====;;;;;;;;--------........    $$$$$$$$$$$$$$$$",
"$$$$$$$$$$$$$$$$    oooooooo%%%%%%%%OOOO    &&&&    $$$$$$$$$$$$",
"$$$$$$$$$$$$$$$$    oooooooo%%%%%%%%OOOO    &&&&    $$$$$$$$$$$$",
"$$$$$$$$$$$$$$$$    oooooooo%%%%%%%%OOOO    &&&&    $$$$$$$$$$$$",
"$$$$$$$$$$$$$$$$    oooooooo%%%%%%%%OOOO    &&&&    $$$$$$$$$$$$",
"$$$$$$$$$$$$    ;;;;;;;;%%%%%%%%%%%%OOOO    &&&&    $$$$$$$$$$$$",
"$$$$$$$$$$$$    ;;;;;;;;%%%%%%%%%%%%OOOO    &&&&    $$$$$$$$$$$$",
"$$$$$$$$$$$$    ;;;;;;;;%%%%%%%%%%%%OOOO    &&&&    $$$$$$$$$$$$",
"$$$$$$$$$$$$    ;;;;;;;;%%%%%%%%%%%%OOOO    &&&&    $$$$$$$$$$$$",
"$$$$$$$$$$$$    ----;;;;    OOOOOOOOOOOO        $$$$$$$$$$$$$$$$",
"$$$$$$$$$$$$    ----;;;;    OOOOOOOOOOOO        $$$$$$$$$$$$$$$$",
"$$$$$$$$$$$$    ----;;;;    OOOOOOOOOOOO        $$$$$$$$$$$$$$$$",
"$$$$$$$$$$$$    ----;;;;    OOOOOOOOOOOO        $$$$$$$$$$$$$$$$",
"$$$$$$$$$$$$            OOOOOOOOOOOOOOOOOOOO    $$$$$$$$$$$$$$$$",
"$$$$$$$$$$$$            OOOOOOOOOOOOOOOOOOOO    $$$$$$$$$$$$$$$$",
"$$$$$$$$$$$$            OOOOOOOOOOOOOOOOOOOO    $$$$$$$$$$$$$$$$",
"$$$$$$$$$$$$            OOOOOOOOOOOOOOOOOOOO    $$$$$$$$$$$$$$$$",
"$$$$$$$$$$$$    @@@@XXXXXXXX        @@@@@@@@@@@@    $$$$$$$$$$$$",
"$$$$$$$$$$$$    @@@@XXXXXXXX        @@@@@@@@@@@@    $$$$$$$$$$$$",
"$$$$$$$$$$$$    @@@@XXXXXXXX        @@@@@@@@@@@@    $$$$$$$$$$$$",
"$$$$$$$$$$$$    @@@@XXXXXXXX        @@@@@@@@@@@@    $$$$$$$$$$$$",
"$$$$$$$$$$$$    @@@@@@@@XXXX    $$$$    @@@@@@@@    $$$$$$$$$$$$",
"$$$$$$$$$$$$    @@@@@@@@XXXX    $$$$    @@@@@@@@    $$$$$$$$$$$$",
"$$$$$$$$$$$$    @@@@@@@@XXXX    $$$$    @@@@@@@@    $$$$$$$$$$$$",
"$$$$$$$$$$$$    @@@@@@@@XXXX    $$$$    @@@@@@@@    $$$$$$$$$$$$"
};
