/* XPM */
static char *Prightmv1702940915[] = {
/* columns rows colors chars-per-pixel */
"64 64 16 1 ",
"  c #040404",
". c #2F1E16",
"X c #3F3013",
"o c #770000",
"O c #51301E",
"+ c #5D4717",
"@ c #754227",
"# c #586738",
"$ c #B60000",
"% c #84482A",
"& c #8C4D2B",
"* c #AA5A33",
"= c #D97F40",
"- c #F6A954",
"; c #F7D099",
": c gray91",
/* pixels */
"################################################################",
"################################################################",
"################################################################",
"################################################################",
"####################                        ####################",
"####################                        ####################",
"####################                        ####################",
"####################                        ####################",
"################    OOOO@@@@&&&&&&&&@@@@OOOO    ################",
"################    OOOO@@@@&&&&&&&&@@@@OOOO    ################",
"################    OOOO@@@@&&&&&&&&@@@@OOOO    ################",
"################    OOOO@@@@&&&&&&&&@@@@OOOO    ################",
"############    ....OOOOOOOO@@@@@@@@OOOOOOOO....    ############",
"############    ....OOOOOOOO@@@@@@@@OOOOOOOO....    ############",
"############    ....OOOOOOOO@@@@@@@@OOOOOOOO....    ############",
"############    ....OOOOOOOO@@@@@@@@OOOOOOOO....    ############",
"############    ........OOOOOOOOOOOOOOOO........    ############",
"############    ........OOOOOOOOOOOOOOOO........    ############",
"############    ........OOOOOOOOOOOOOOOO........    ############",
"############    ........OOOOOOOOOOOOOOOO........    ############",
"############    ........................----****    ############",
"############    ........................----****    ############",
"############    ........................----****    ############",
"############    ........................----****    ############",
"############    ....................--------====    ############",
"############    ....................--------====    ############",
"############    ....................--------====    ############",
"############    ....................--------====    ############",
"############    ....====----....----::::    ;;;;    ############",
"############    ....====----....----::::    ;;;;    ############",
"############    ....====----....----::::    ;;;;    ############",
"############    ....====----....----::::    ;;;;    ############",
"################    ========--------::::    ;;;;    ############",
"################    ========--------::::    ;;;;    ############",
"################    ========--------::::    ;;;;    ############",
"################    ========--------::::    ;;;;    ############",
"################    ........========--------****    ############",
"################    ........========--------****    ############",
"################    ........========--------****    ############",
"################    ........========--------****    ############",
"############    %%%%    oooo$$$$$$$$%%%%%%%%    ################",
"############    %%%%    oooo$$$$$$$$%%%%%%%%    ################",
"############    %%%%    oooo$$$$$$$$%%%%%%%%    ################",
"############    %%%%    oooo$$$$$$$$%%%%%%%%    ################",
"############    %%%%    oooo$$$$$$$$$$$$--------    ############",
"############    %%%%    oooo$$$$$$$$$$$$--------    ############",
"############    %%%%    oooo$$$$$$$$$$$$--------    ############",
"############    %%%%    oooo$$$$$$$$$$$$--------    ############",
"################        oooooooooooo    ----====    ############",
"################        oooooooooooo    ----====    ############",
"################        oooooooooooo    ----====    ############",
"################        oooooooooooo    ----====    ############",
"################    oooooooooooooooooooo            ############",
"################    oooooooooooooooooooo            ############",
"################    oooooooooooooooooooo            ############",
"################    oooooooooooooooooooo            ############",
"############    ++++++++++++        XXXXXXXX++++    ############",
"############    ++++++++++++        XXXXXXXX++++    ############",
"############    ++++++++++++        XXXXXXXX++++    ############",
"############    ++++++++++++        XXXXXXXX++++    ############",
"############    ++++++++    ####    XXXX++++++++    ############",
"############    ++++++++    ####    XXXX++++++++    ############",
"############    ++++++++    ####    XXXX++++++++    ############",
"############    ++++++++    ####    XXXX++++++++    ############"
};
