/* XPM */
static char *Wwall1702940916[] = {
/* columns rows colors chars-per-pixel */
"64 64 12 1 ",
"  c gray9",
". c #2E2415",
"X c #213F2F",
"o c #4F3712",
"O c #3E472B",
"+ c #346B3D",
"@ c #644F1B",
"# c #586738",
"$ c #7B642E",
"% c #598C46",
"& c #77A947",
"* c #93C147",
/* pixels */
"############################        ############################",
"############################        ############################",
"############################        ############################",
"############################        ############################",
"########################    ********    ########################",
"########################    ********    ########################",
"########################    ********    ########################",
"########################    ********    ########################",
"####################    %%%%********%%%%    ####################",
"####################    %%%%********%%%%    ####################",
"####################    %%%%********%%%%    ####################",
"####################    %%%%********%%%%    ####################",
"####################    &&&&&&&&&&&&&&&&    ####################",
"####################    &&&&&&&&&&&&&&&&    ####################",
"####################    &&&&&&&&&&&&&&&&    ####################",
"####################    &&&&&&&&&&&&&&&&    ####################",
"################    ++++%%%%&&&&&&&&%%%%++++    ################",
"################    ++++%%%%&&&&&&&&%%%%++++    ################",
"################    ++++%%%%&&&&&&&&%%%%++++    ################",
"################    ++++%%%%&&&&&&&&%%%%++++    ################",
"############    XXXX%%%%%%%%%%%%%%%%%%%%%%%%XXXX    ############",
"############    XXXX%%%%%%%%%%%%%%%%%%%%%%%%XXXX    ############",
"############    XXXX%%%%%%%%%%%%%%%%%%%%%%%%XXXX    ############",
"############    XXXX%%%%%%%%%%%%%%%%%%%%%%%%XXXX    ############",
"############    ++++++++%%%%%%%%%%%%%%%%++++++++    ############",
"############    ++++++++%%%%%%%%%%%%%%%%++++++++    ############",
"############    ++++++++%%%%%%%%%%%%%%%%++++++++    ############",
"############    ++++++++%%%%%%%%%%%%%%%%++++++++    ############",
"############    ++++++++++++++++++++++++++++++++    ############",
"############    ++++++++++++++++++++++++++++++++    ############",
"############    ++++++++++++++++++++++++++++++++    ############",
"############    ++++++++++++++++++++++++++++++++    ############",
"############    XXXX++++++++++++++++++++++++XXXX    ############",
"############    XXXX++++++++++++++++++++++++XXXX    ############",
"############    XXXX++++++++++++++++++++++++XXXX    ############",
"############    XXXX++++++++++++++++++++++++XXXX    ############",
"############    XXXXXXXXXXXXXXXXXXXXXXXXXXXXXXXX    ############",
"############    XXXXXXXXXXXXXXXXXXXXXXXXXXXXXXXX    ############",
"############    XXXXXXXXXXXXXXXXXXXXXXXXXXXXXXXX    ############",
"############    XXXXXXXXXXXXXXXXXXXXXXXXXXXXXXXX    ############",
"############OOOO    XXXXXXXXXXXXXXXXXXXXXXXX    OOOO############",
"############OOOO    XXXXXXXXXXXXXXXXXXXXXXXX    OOOO############",
"############OOOO    XXXXXXXXXXXXXXXXXXXXXXXX    OOOO############",
"############OOOO    XXXXXXXXXXXXXXXXXXXXXXXX    OOOO############",
"########OOOOOOOOOOOO    ....oooooooo....    OOOOOOOOOOOO########",
"########OOOOOOOOOOOO    ....oooooooo....    OOOOOOOOOOOO########",
"########OOOOOOOOOOOO    ....oooooooo....    OOOOOOOOOOOO########",
"########OOOOOOOOOOOO    ....oooooooo....    OOOOOOOOOOOO########",
"########OOOOOOOOOOOO....oooo@@@@@@@@oooo....OOOOOOOOOOOO########",
"########OOOOOOOOOOOO....oooo@@@@@@@@oooo....OOOOOOOOOOOO########",
"########OOOOOOOOOOOO....oooo@@@@@@@@oooo....OOOOOOOOOOOO########",
"########OOOOOOOOOOOO....oooo@@@@@@@@oooo....OOOOOOOOOOOO########",
"########OOOOOOOOOOOOOOOO....$$$$$$$$....OOOOOOOOOOOOOOOO########",
"########OOOOOOOOOOOOOOOO....$$$$$$$$....OOOOOOOOOOOOOOOO########",
"########OOOOOOOOOOOOOOOO....$$$$$$$$....OOOOOOOOOOOOOOOO########",
"########OOOOOOOOOOOOOOOO....$$$$$$$$....OOOOOOOOOOOOOOOO########",
"########OOOOOOOOOOOOOOOOOOOOOOOOOOOOOOOOOOOOOOOOOOOOOOOO########",
"########OOOOOOOOOOOOOOOOOOOOOOOOOOOOOOOOOOOOOOOOOOOOOOOO########",
"########OOOOOOOOOOOOOOOOOOOOOOOOOOOOOOOOOOOOOOOOOOOOOOOO########",
"########OOOOOOOOOOOOOOOOOOOOOOOOOOOOOOOOOOOOOOOOOOOOOOOO########",
"############OOOOOOOOOOOOOOOOOOOOOOOOOOOOOOOOOOOOOOOO############",
"############OOOOOOOOOOOOOOOOOOOOOOOOOOOOOOOOOOOOOOOO############",
"############OOOOOOOOOOOOOOOOOOOOOOOOOOOOOOOOOOOOOOOO############",
"############OOOOOOOOOOOOOOOOOOOOOOOOOOOOOOOOOOOOOOOO############"
};
